%TF.GenerationSoftware,KiCad,Pcbnew,9.0.5*%
%TF.CreationDate,2025-11-30T01:12:24+01:00*%
%TF.ProjectId,xmasCrystalBall,786d6173-4372-4797-9374-616c42616c6c,rev?*%
%TF.SameCoordinates,Original*%
%TF.FileFunction,Drillmap*%
%TF.FilePolarity,Positive*%
%FSLAX45Y45*%
G04 Gerber Fmt 4.5, Leading zero omitted, Abs format (unit mm)*
G04 Created by KiCad (PCBNEW 9.0.5) date 2025-11-30 01:12:24*
%MOMM*%
%LPD*%
G01*
G04 APERTURE LIST*
%ADD10C,0.050000*%
%ADD11C,0.200000*%
%ADD12C,0.100000*%
G04 APERTURE END LIST*
D10*
X14646467Y-6581420D02*
G75*
G02*
X14123533Y-6581420I-261467J-2988581D01*
G01*
X14123533Y-6581420D02*
G75*
G02*
X14646467Y-6581420I261467J301420D01*
G01*
X14493166Y-6280000D02*
G75*
G02*
X14276833Y-6280000I-108167J0D01*
G01*
X14276833Y-6280000D02*
G75*
G02*
X14493166Y-6280000I108167J0D01*
G01*
D11*
D12*
X14066000Y-11866000D02*
X14126000Y-11926000D01*
X14126000Y-11866000D02*
X14066000Y-11926000D01*
X14644000Y-11866000D02*
X14704000Y-11926000D01*
X14704000Y-11866000D02*
X14644000Y-11926000D01*
D11*
X11643279Y-12883982D02*
X11643279Y-12683982D01*
X11643279Y-12683982D02*
X11690898Y-12683982D01*
X11690898Y-12683982D02*
X11719470Y-12693506D01*
X11719470Y-12693506D02*
X11738518Y-12712554D01*
X11738518Y-12712554D02*
X11748041Y-12731601D01*
X11748041Y-12731601D02*
X11757565Y-12769697D01*
X11757565Y-12769697D02*
X11757565Y-12798268D01*
X11757565Y-12798268D02*
X11748041Y-12836363D01*
X11748041Y-12836363D02*
X11738518Y-12855411D01*
X11738518Y-12855411D02*
X11719470Y-12874459D01*
X11719470Y-12874459D02*
X11690898Y-12883982D01*
X11690898Y-12883982D02*
X11643279Y-12883982D01*
X11843279Y-12883982D02*
X11843279Y-12750649D01*
X11843279Y-12788744D02*
X11852803Y-12769697D01*
X11852803Y-12769697D02*
X11862327Y-12760173D01*
X11862327Y-12760173D02*
X11881375Y-12750649D01*
X11881375Y-12750649D02*
X11900422Y-12750649D01*
X11967089Y-12883982D02*
X11967089Y-12750649D01*
X11967089Y-12683982D02*
X11957565Y-12693506D01*
X11957565Y-12693506D02*
X11967089Y-12703030D01*
X11967089Y-12703030D02*
X11976613Y-12693506D01*
X11976613Y-12693506D02*
X11967089Y-12683982D01*
X11967089Y-12683982D02*
X11967089Y-12703030D01*
X12090898Y-12883982D02*
X12071851Y-12874459D01*
X12071851Y-12874459D02*
X12062327Y-12855411D01*
X12062327Y-12855411D02*
X12062327Y-12683982D01*
X12195660Y-12883982D02*
X12176613Y-12874459D01*
X12176613Y-12874459D02*
X12167089Y-12855411D01*
X12167089Y-12855411D02*
X12167089Y-12683982D01*
X12424232Y-12883982D02*
X12424232Y-12683982D01*
X12424232Y-12683982D02*
X12490899Y-12826840D01*
X12490899Y-12826840D02*
X12557565Y-12683982D01*
X12557565Y-12683982D02*
X12557565Y-12883982D01*
X12738518Y-12883982D02*
X12738518Y-12779221D01*
X12738518Y-12779221D02*
X12728994Y-12760173D01*
X12728994Y-12760173D02*
X12709946Y-12750649D01*
X12709946Y-12750649D02*
X12671851Y-12750649D01*
X12671851Y-12750649D02*
X12652803Y-12760173D01*
X12738518Y-12874459D02*
X12719470Y-12883982D01*
X12719470Y-12883982D02*
X12671851Y-12883982D01*
X12671851Y-12883982D02*
X12652803Y-12874459D01*
X12652803Y-12874459D02*
X12643279Y-12855411D01*
X12643279Y-12855411D02*
X12643279Y-12836363D01*
X12643279Y-12836363D02*
X12652803Y-12817316D01*
X12652803Y-12817316D02*
X12671851Y-12807792D01*
X12671851Y-12807792D02*
X12719470Y-12807792D01*
X12719470Y-12807792D02*
X12738518Y-12798268D01*
X12833756Y-12750649D02*
X12833756Y-12950649D01*
X12833756Y-12760173D02*
X12852803Y-12750649D01*
X12852803Y-12750649D02*
X12890899Y-12750649D01*
X12890899Y-12750649D02*
X12909946Y-12760173D01*
X12909946Y-12760173D02*
X12919470Y-12769697D01*
X12919470Y-12769697D02*
X12928994Y-12788744D01*
X12928994Y-12788744D02*
X12928994Y-12845887D01*
X12928994Y-12845887D02*
X12919470Y-12864935D01*
X12919470Y-12864935D02*
X12909946Y-12874459D01*
X12909946Y-12874459D02*
X12890899Y-12883982D01*
X12890899Y-12883982D02*
X12852803Y-12883982D01*
X12852803Y-12883982D02*
X12833756Y-12874459D01*
X13014708Y-12864935D02*
X13024232Y-12874459D01*
X13024232Y-12874459D02*
X13014708Y-12883982D01*
X13014708Y-12883982D02*
X13005184Y-12874459D01*
X13005184Y-12874459D02*
X13014708Y-12864935D01*
X13014708Y-12864935D02*
X13014708Y-12883982D01*
X13014708Y-12760173D02*
X13024232Y-12769697D01*
X13024232Y-12769697D02*
X13014708Y-12779221D01*
X13014708Y-12779221D02*
X13005184Y-12769697D01*
X13005184Y-12769697D02*
X13014708Y-12760173D01*
X13014708Y-12760173D02*
X13014708Y-12779221D01*
D12*
X11322503Y-13182499D02*
X11382503Y-13242499D01*
X11382503Y-13182499D02*
X11322503Y-13242499D01*
D11*
X11681375Y-13103982D02*
X11700422Y-13103982D01*
X11700422Y-13103982D02*
X11719470Y-13113506D01*
X11719470Y-13113506D02*
X11728994Y-13123030D01*
X11728994Y-13123030D02*
X11738518Y-13142078D01*
X11738518Y-13142078D02*
X11748041Y-13180173D01*
X11748041Y-13180173D02*
X11748041Y-13227792D01*
X11748041Y-13227792D02*
X11738518Y-13265887D01*
X11738518Y-13265887D02*
X11728994Y-13284935D01*
X11728994Y-13284935D02*
X11719470Y-13294459D01*
X11719470Y-13294459D02*
X11700422Y-13303982D01*
X11700422Y-13303982D02*
X11681375Y-13303982D01*
X11681375Y-13303982D02*
X11662327Y-13294459D01*
X11662327Y-13294459D02*
X11652803Y-13284935D01*
X11652803Y-13284935D02*
X11643279Y-13265887D01*
X11643279Y-13265887D02*
X11633756Y-13227792D01*
X11633756Y-13227792D02*
X11633756Y-13180173D01*
X11633756Y-13180173D02*
X11643279Y-13142078D01*
X11643279Y-13142078D02*
X11652803Y-13123030D01*
X11652803Y-13123030D02*
X11662327Y-13113506D01*
X11662327Y-13113506D02*
X11681375Y-13103982D01*
X11833756Y-13284935D02*
X11843279Y-13294459D01*
X11843279Y-13294459D02*
X11833756Y-13303982D01*
X11833756Y-13303982D02*
X11824232Y-13294459D01*
X11824232Y-13294459D02*
X11833756Y-13284935D01*
X11833756Y-13284935D02*
X11833756Y-13303982D01*
X12014708Y-13103982D02*
X11976613Y-13103982D01*
X11976613Y-13103982D02*
X11957565Y-13113506D01*
X11957565Y-13113506D02*
X11948041Y-13123030D01*
X11948041Y-13123030D02*
X11928994Y-13151601D01*
X11928994Y-13151601D02*
X11919470Y-13189697D01*
X11919470Y-13189697D02*
X11919470Y-13265887D01*
X11919470Y-13265887D02*
X11928994Y-13284935D01*
X11928994Y-13284935D02*
X11938518Y-13294459D01*
X11938518Y-13294459D02*
X11957565Y-13303982D01*
X11957565Y-13303982D02*
X11995660Y-13303982D01*
X11995660Y-13303982D02*
X12014708Y-13294459D01*
X12014708Y-13294459D02*
X12024232Y-13284935D01*
X12024232Y-13284935D02*
X12033756Y-13265887D01*
X12033756Y-13265887D02*
X12033756Y-13218268D01*
X12033756Y-13218268D02*
X12024232Y-13199221D01*
X12024232Y-13199221D02*
X12014708Y-13189697D01*
X12014708Y-13189697D02*
X11995660Y-13180173D01*
X11995660Y-13180173D02*
X11957565Y-13180173D01*
X11957565Y-13180173D02*
X11938518Y-13189697D01*
X11938518Y-13189697D02*
X11928994Y-13199221D01*
X11928994Y-13199221D02*
X11919470Y-13218268D01*
X12157565Y-13103982D02*
X12176613Y-13103982D01*
X12176613Y-13103982D02*
X12195660Y-13113506D01*
X12195660Y-13113506D02*
X12205184Y-13123030D01*
X12205184Y-13123030D02*
X12214708Y-13142078D01*
X12214708Y-13142078D02*
X12224232Y-13180173D01*
X12224232Y-13180173D02*
X12224232Y-13227792D01*
X12224232Y-13227792D02*
X12214708Y-13265887D01*
X12214708Y-13265887D02*
X12205184Y-13284935D01*
X12205184Y-13284935D02*
X12195660Y-13294459D01*
X12195660Y-13294459D02*
X12176613Y-13303982D01*
X12176613Y-13303982D02*
X12157565Y-13303982D01*
X12157565Y-13303982D02*
X12138518Y-13294459D01*
X12138518Y-13294459D02*
X12128994Y-13284935D01*
X12128994Y-13284935D02*
X12119470Y-13265887D01*
X12119470Y-13265887D02*
X12109946Y-13227792D01*
X12109946Y-13227792D02*
X12109946Y-13180173D01*
X12109946Y-13180173D02*
X12119470Y-13142078D01*
X12119470Y-13142078D02*
X12128994Y-13123030D01*
X12128994Y-13123030D02*
X12138518Y-13113506D01*
X12138518Y-13113506D02*
X12157565Y-13103982D01*
X12348041Y-13103982D02*
X12367089Y-13103982D01*
X12367089Y-13103982D02*
X12386137Y-13113506D01*
X12386137Y-13113506D02*
X12395660Y-13123030D01*
X12395660Y-13123030D02*
X12405184Y-13142078D01*
X12405184Y-13142078D02*
X12414708Y-13180173D01*
X12414708Y-13180173D02*
X12414708Y-13227792D01*
X12414708Y-13227792D02*
X12405184Y-13265887D01*
X12405184Y-13265887D02*
X12395660Y-13284935D01*
X12395660Y-13284935D02*
X12386137Y-13294459D01*
X12386137Y-13294459D02*
X12367089Y-13303982D01*
X12367089Y-13303982D02*
X12348041Y-13303982D01*
X12348041Y-13303982D02*
X12328994Y-13294459D01*
X12328994Y-13294459D02*
X12319470Y-13284935D01*
X12319470Y-13284935D02*
X12309946Y-13265887D01*
X12309946Y-13265887D02*
X12300422Y-13227792D01*
X12300422Y-13227792D02*
X12300422Y-13180173D01*
X12300422Y-13180173D02*
X12309946Y-13142078D01*
X12309946Y-13142078D02*
X12319470Y-13123030D01*
X12319470Y-13123030D02*
X12328994Y-13113506D01*
X12328994Y-13113506D02*
X12348041Y-13103982D01*
X12500422Y-13303982D02*
X12500422Y-13170649D01*
X12500422Y-13189697D02*
X12509946Y-13180173D01*
X12509946Y-13180173D02*
X12528994Y-13170649D01*
X12528994Y-13170649D02*
X12557565Y-13170649D01*
X12557565Y-13170649D02*
X12576613Y-13180173D01*
X12576613Y-13180173D02*
X12586137Y-13199221D01*
X12586137Y-13199221D02*
X12586137Y-13303982D01*
X12586137Y-13199221D02*
X12595660Y-13180173D01*
X12595660Y-13180173D02*
X12614708Y-13170649D01*
X12614708Y-13170649D02*
X12643279Y-13170649D01*
X12643279Y-13170649D02*
X12662327Y-13180173D01*
X12662327Y-13180173D02*
X12671851Y-13199221D01*
X12671851Y-13199221D02*
X12671851Y-13303982D01*
X12767089Y-13303982D02*
X12767089Y-13170649D01*
X12767089Y-13189697D02*
X12776613Y-13180173D01*
X12776613Y-13180173D02*
X12795660Y-13170649D01*
X12795660Y-13170649D02*
X12824232Y-13170649D01*
X12824232Y-13170649D02*
X12843280Y-13180173D01*
X12843280Y-13180173D02*
X12852803Y-13199221D01*
X12852803Y-13199221D02*
X12852803Y-13303982D01*
X12852803Y-13199221D02*
X12862327Y-13180173D01*
X12862327Y-13180173D02*
X12881375Y-13170649D01*
X12881375Y-13170649D02*
X12909946Y-13170649D01*
X12909946Y-13170649D02*
X12928994Y-13180173D01*
X12928994Y-13180173D02*
X12938518Y-13199221D01*
X12938518Y-13199221D02*
X12938518Y-13303982D01*
X13328994Y-13094459D02*
X13157565Y-13351601D01*
X13586137Y-13103982D02*
X13605184Y-13103982D01*
X13605184Y-13103982D02*
X13624232Y-13113506D01*
X13624232Y-13113506D02*
X13633756Y-13123030D01*
X13633756Y-13123030D02*
X13643280Y-13142078D01*
X13643280Y-13142078D02*
X13652803Y-13180173D01*
X13652803Y-13180173D02*
X13652803Y-13227792D01*
X13652803Y-13227792D02*
X13643280Y-13265887D01*
X13643280Y-13265887D02*
X13633756Y-13284935D01*
X13633756Y-13284935D02*
X13624232Y-13294459D01*
X13624232Y-13294459D02*
X13605184Y-13303982D01*
X13605184Y-13303982D02*
X13586137Y-13303982D01*
X13586137Y-13303982D02*
X13567089Y-13294459D01*
X13567089Y-13294459D02*
X13557565Y-13284935D01*
X13557565Y-13284935D02*
X13548042Y-13265887D01*
X13548042Y-13265887D02*
X13538518Y-13227792D01*
X13538518Y-13227792D02*
X13538518Y-13180173D01*
X13538518Y-13180173D02*
X13548042Y-13142078D01*
X13548042Y-13142078D02*
X13557565Y-13123030D01*
X13557565Y-13123030D02*
X13567089Y-13113506D01*
X13567089Y-13113506D02*
X13586137Y-13103982D01*
X13738518Y-13284935D02*
X13748042Y-13294459D01*
X13748042Y-13294459D02*
X13738518Y-13303982D01*
X13738518Y-13303982D02*
X13728994Y-13294459D01*
X13728994Y-13294459D02*
X13738518Y-13284935D01*
X13738518Y-13284935D02*
X13738518Y-13303982D01*
X13871851Y-13103982D02*
X13890899Y-13103982D01*
X13890899Y-13103982D02*
X13909946Y-13113506D01*
X13909946Y-13113506D02*
X13919470Y-13123030D01*
X13919470Y-13123030D02*
X13928994Y-13142078D01*
X13928994Y-13142078D02*
X13938518Y-13180173D01*
X13938518Y-13180173D02*
X13938518Y-13227792D01*
X13938518Y-13227792D02*
X13928994Y-13265887D01*
X13928994Y-13265887D02*
X13919470Y-13284935D01*
X13919470Y-13284935D02*
X13909946Y-13294459D01*
X13909946Y-13294459D02*
X13890899Y-13303982D01*
X13890899Y-13303982D02*
X13871851Y-13303982D01*
X13871851Y-13303982D02*
X13852803Y-13294459D01*
X13852803Y-13294459D02*
X13843280Y-13284935D01*
X13843280Y-13284935D02*
X13833756Y-13265887D01*
X13833756Y-13265887D02*
X13824232Y-13227792D01*
X13824232Y-13227792D02*
X13824232Y-13180173D01*
X13824232Y-13180173D02*
X13833756Y-13142078D01*
X13833756Y-13142078D02*
X13843280Y-13123030D01*
X13843280Y-13123030D02*
X13852803Y-13113506D01*
X13852803Y-13113506D02*
X13871851Y-13103982D01*
X14014708Y-13123030D02*
X14024232Y-13113506D01*
X14024232Y-13113506D02*
X14043280Y-13103982D01*
X14043280Y-13103982D02*
X14090899Y-13103982D01*
X14090899Y-13103982D02*
X14109946Y-13113506D01*
X14109946Y-13113506D02*
X14119470Y-13123030D01*
X14119470Y-13123030D02*
X14128994Y-13142078D01*
X14128994Y-13142078D02*
X14128994Y-13161125D01*
X14128994Y-13161125D02*
X14119470Y-13189697D01*
X14119470Y-13189697D02*
X14005184Y-13303982D01*
X14005184Y-13303982D02*
X14128994Y-13303982D01*
X14195661Y-13103982D02*
X14319470Y-13103982D01*
X14319470Y-13103982D02*
X14252803Y-13180173D01*
X14252803Y-13180173D02*
X14281375Y-13180173D01*
X14281375Y-13180173D02*
X14300423Y-13189697D01*
X14300423Y-13189697D02*
X14309946Y-13199221D01*
X14309946Y-13199221D02*
X14319470Y-13218268D01*
X14319470Y-13218268D02*
X14319470Y-13265887D01*
X14319470Y-13265887D02*
X14309946Y-13284935D01*
X14309946Y-13284935D02*
X14300423Y-13294459D01*
X14300423Y-13294459D02*
X14281375Y-13303982D01*
X14281375Y-13303982D02*
X14224232Y-13303982D01*
X14224232Y-13303982D02*
X14205184Y-13294459D01*
X14205184Y-13294459D02*
X14195661Y-13284935D01*
X14490899Y-13103982D02*
X14452803Y-13103982D01*
X14452803Y-13103982D02*
X14433756Y-13113506D01*
X14433756Y-13113506D02*
X14424232Y-13123030D01*
X14424232Y-13123030D02*
X14405184Y-13151601D01*
X14405184Y-13151601D02*
X14395661Y-13189697D01*
X14395661Y-13189697D02*
X14395661Y-13265887D01*
X14395661Y-13265887D02*
X14405184Y-13284935D01*
X14405184Y-13284935D02*
X14414708Y-13294459D01*
X14414708Y-13294459D02*
X14433756Y-13303982D01*
X14433756Y-13303982D02*
X14471851Y-13303982D01*
X14471851Y-13303982D02*
X14490899Y-13294459D01*
X14490899Y-13294459D02*
X14500423Y-13284935D01*
X14500423Y-13284935D02*
X14509946Y-13265887D01*
X14509946Y-13265887D02*
X14509946Y-13218268D01*
X14509946Y-13218268D02*
X14500423Y-13199221D01*
X14500423Y-13199221D02*
X14490899Y-13189697D01*
X14490899Y-13189697D02*
X14471851Y-13180173D01*
X14471851Y-13180173D02*
X14433756Y-13180173D01*
X14433756Y-13180173D02*
X14414708Y-13189697D01*
X14414708Y-13189697D02*
X14405184Y-13199221D01*
X14405184Y-13199221D02*
X14395661Y-13218268D01*
X14586137Y-13103982D02*
X14586137Y-13142078D01*
X14662327Y-13103982D02*
X14662327Y-13142078D01*
X14957566Y-13380173D02*
X14948042Y-13370649D01*
X14948042Y-13370649D02*
X14928994Y-13342078D01*
X14928994Y-13342078D02*
X14919470Y-13323030D01*
X14919470Y-13323030D02*
X14909946Y-13294459D01*
X14909946Y-13294459D02*
X14900423Y-13246840D01*
X14900423Y-13246840D02*
X14900423Y-13208744D01*
X14900423Y-13208744D02*
X14909946Y-13161125D01*
X14909946Y-13161125D02*
X14919470Y-13132554D01*
X14919470Y-13132554D02*
X14928994Y-13113506D01*
X14928994Y-13113506D02*
X14948042Y-13084935D01*
X14948042Y-13084935D02*
X14957566Y-13075411D01*
X15024232Y-13123030D02*
X15033756Y-13113506D01*
X15033756Y-13113506D02*
X15052804Y-13103982D01*
X15052804Y-13103982D02*
X15100423Y-13103982D01*
X15100423Y-13103982D02*
X15119470Y-13113506D01*
X15119470Y-13113506D02*
X15128994Y-13123030D01*
X15128994Y-13123030D02*
X15138518Y-13142078D01*
X15138518Y-13142078D02*
X15138518Y-13161125D01*
X15138518Y-13161125D02*
X15128994Y-13189697D01*
X15128994Y-13189697D02*
X15014708Y-13303982D01*
X15014708Y-13303982D02*
X15138518Y-13303982D01*
X15376613Y-13303982D02*
X15376613Y-13103982D01*
X15462327Y-13303982D02*
X15462327Y-13199221D01*
X15462327Y-13199221D02*
X15452804Y-13180173D01*
X15452804Y-13180173D02*
X15433756Y-13170649D01*
X15433756Y-13170649D02*
X15405185Y-13170649D01*
X15405185Y-13170649D02*
X15386137Y-13180173D01*
X15386137Y-13180173D02*
X15376613Y-13189697D01*
X15586137Y-13303982D02*
X15567089Y-13294459D01*
X15567089Y-13294459D02*
X15557566Y-13284935D01*
X15557566Y-13284935D02*
X15548042Y-13265887D01*
X15548042Y-13265887D02*
X15548042Y-13208744D01*
X15548042Y-13208744D02*
X15557566Y-13189697D01*
X15557566Y-13189697D02*
X15567089Y-13180173D01*
X15567089Y-13180173D02*
X15586137Y-13170649D01*
X15586137Y-13170649D02*
X15614708Y-13170649D01*
X15614708Y-13170649D02*
X15633756Y-13180173D01*
X15633756Y-13180173D02*
X15643280Y-13189697D01*
X15643280Y-13189697D02*
X15652804Y-13208744D01*
X15652804Y-13208744D02*
X15652804Y-13265887D01*
X15652804Y-13265887D02*
X15643280Y-13284935D01*
X15643280Y-13284935D02*
X15633756Y-13294459D01*
X15633756Y-13294459D02*
X15614708Y-13303982D01*
X15614708Y-13303982D02*
X15586137Y-13303982D01*
X15767089Y-13303982D02*
X15748042Y-13294459D01*
X15748042Y-13294459D02*
X15738518Y-13275411D01*
X15738518Y-13275411D02*
X15738518Y-13103982D01*
X15919470Y-13294459D02*
X15900423Y-13303982D01*
X15900423Y-13303982D02*
X15862327Y-13303982D01*
X15862327Y-13303982D02*
X15843280Y-13294459D01*
X15843280Y-13294459D02*
X15833756Y-13275411D01*
X15833756Y-13275411D02*
X15833756Y-13199221D01*
X15833756Y-13199221D02*
X15843280Y-13180173D01*
X15843280Y-13180173D02*
X15862327Y-13170649D01*
X15862327Y-13170649D02*
X15900423Y-13170649D01*
X15900423Y-13170649D02*
X15919470Y-13180173D01*
X15919470Y-13180173D02*
X15928994Y-13199221D01*
X15928994Y-13199221D02*
X15928994Y-13218268D01*
X15928994Y-13218268D02*
X15833756Y-13237316D01*
X16005185Y-13294459D02*
X16024232Y-13303982D01*
X16024232Y-13303982D02*
X16062327Y-13303982D01*
X16062327Y-13303982D02*
X16081375Y-13294459D01*
X16081375Y-13294459D02*
X16090899Y-13275411D01*
X16090899Y-13275411D02*
X16090899Y-13265887D01*
X16090899Y-13265887D02*
X16081375Y-13246840D01*
X16081375Y-13246840D02*
X16062327Y-13237316D01*
X16062327Y-13237316D02*
X16033756Y-13237316D01*
X16033756Y-13237316D02*
X16014708Y-13227792D01*
X16014708Y-13227792D02*
X16005185Y-13208744D01*
X16005185Y-13208744D02*
X16005185Y-13199221D01*
X16005185Y-13199221D02*
X16014708Y-13180173D01*
X16014708Y-13180173D02*
X16033756Y-13170649D01*
X16033756Y-13170649D02*
X16062327Y-13170649D01*
X16062327Y-13170649D02*
X16081375Y-13180173D01*
X16157566Y-13380173D02*
X16167089Y-13370649D01*
X16167089Y-13370649D02*
X16186137Y-13342078D01*
X16186137Y-13342078D02*
X16195661Y-13323030D01*
X16195661Y-13323030D02*
X16205185Y-13294459D01*
X16205185Y-13294459D02*
X16214708Y-13246840D01*
X16214708Y-13246840D02*
X16214708Y-13208744D01*
X16214708Y-13208744D02*
X16205185Y-13161125D01*
X16205185Y-13161125D02*
X16195661Y-13132554D01*
X16195661Y-13132554D02*
X16186137Y-13113506D01*
X16186137Y-13113506D02*
X16167089Y-13084935D01*
X16167089Y-13084935D02*
X16157566Y-13075411D01*
X16519470Y-13380173D02*
X16509947Y-13370649D01*
X16509947Y-13370649D02*
X16490899Y-13342078D01*
X16490899Y-13342078D02*
X16481375Y-13323030D01*
X16481375Y-13323030D02*
X16471851Y-13294459D01*
X16471851Y-13294459D02*
X16462328Y-13246840D01*
X16462328Y-13246840D02*
X16462328Y-13208744D01*
X16462328Y-13208744D02*
X16471851Y-13161125D01*
X16471851Y-13161125D02*
X16481375Y-13132554D01*
X16481375Y-13132554D02*
X16490899Y-13113506D01*
X16490899Y-13113506D02*
X16509947Y-13084935D01*
X16509947Y-13084935D02*
X16519470Y-13075411D01*
X16595661Y-13170649D02*
X16595661Y-13303982D01*
X16595661Y-13189697D02*
X16605185Y-13180173D01*
X16605185Y-13180173D02*
X16624232Y-13170649D01*
X16624232Y-13170649D02*
X16652804Y-13170649D01*
X16652804Y-13170649D02*
X16671851Y-13180173D01*
X16671851Y-13180173D02*
X16681375Y-13199221D01*
X16681375Y-13199221D02*
X16681375Y-13303982D01*
X16805185Y-13303982D02*
X16786137Y-13294459D01*
X16786137Y-13294459D02*
X16776613Y-13284935D01*
X16776613Y-13284935D02*
X16767089Y-13265887D01*
X16767089Y-13265887D02*
X16767089Y-13208744D01*
X16767089Y-13208744D02*
X16776613Y-13189697D01*
X16776613Y-13189697D02*
X16786137Y-13180173D01*
X16786137Y-13180173D02*
X16805185Y-13170649D01*
X16805185Y-13170649D02*
X16833756Y-13170649D01*
X16833756Y-13170649D02*
X16852804Y-13180173D01*
X16852804Y-13180173D02*
X16862328Y-13189697D01*
X16862328Y-13189697D02*
X16871851Y-13208744D01*
X16871851Y-13208744D02*
X16871851Y-13265887D01*
X16871851Y-13265887D02*
X16862328Y-13284935D01*
X16862328Y-13284935D02*
X16852804Y-13294459D01*
X16852804Y-13294459D02*
X16833756Y-13303982D01*
X16833756Y-13303982D02*
X16805185Y-13303982D01*
X16928994Y-13170649D02*
X17005185Y-13170649D01*
X16957566Y-13103982D02*
X16957566Y-13275411D01*
X16957566Y-13275411D02*
X16967090Y-13294459D01*
X16967090Y-13294459D02*
X16986137Y-13303982D01*
X16986137Y-13303982D02*
X17005185Y-13303982D01*
X17224232Y-13170649D02*
X17224232Y-13370649D01*
X17224232Y-13180173D02*
X17243280Y-13170649D01*
X17243280Y-13170649D02*
X17281375Y-13170649D01*
X17281375Y-13170649D02*
X17300423Y-13180173D01*
X17300423Y-13180173D02*
X17309947Y-13189697D01*
X17309947Y-13189697D02*
X17319471Y-13208744D01*
X17319471Y-13208744D02*
X17319471Y-13265887D01*
X17319471Y-13265887D02*
X17309947Y-13284935D01*
X17309947Y-13284935D02*
X17300423Y-13294459D01*
X17300423Y-13294459D02*
X17281375Y-13303982D01*
X17281375Y-13303982D02*
X17243280Y-13303982D01*
X17243280Y-13303982D02*
X17224232Y-13294459D01*
X17433756Y-13303982D02*
X17414709Y-13294459D01*
X17414709Y-13294459D02*
X17405185Y-13275411D01*
X17405185Y-13275411D02*
X17405185Y-13103982D01*
X17595661Y-13303982D02*
X17595661Y-13199221D01*
X17595661Y-13199221D02*
X17586137Y-13180173D01*
X17586137Y-13180173D02*
X17567090Y-13170649D01*
X17567090Y-13170649D02*
X17528994Y-13170649D01*
X17528994Y-13170649D02*
X17509947Y-13180173D01*
X17595661Y-13294459D02*
X17576613Y-13303982D01*
X17576613Y-13303982D02*
X17528994Y-13303982D01*
X17528994Y-13303982D02*
X17509947Y-13294459D01*
X17509947Y-13294459D02*
X17500423Y-13275411D01*
X17500423Y-13275411D02*
X17500423Y-13256363D01*
X17500423Y-13256363D02*
X17509947Y-13237316D01*
X17509947Y-13237316D02*
X17528994Y-13227792D01*
X17528994Y-13227792D02*
X17576613Y-13227792D01*
X17576613Y-13227792D02*
X17595661Y-13218268D01*
X17662328Y-13170649D02*
X17738518Y-13170649D01*
X17690899Y-13103982D02*
X17690899Y-13275411D01*
X17690899Y-13275411D02*
X17700423Y-13294459D01*
X17700423Y-13294459D02*
X17719471Y-13303982D01*
X17719471Y-13303982D02*
X17738518Y-13303982D01*
X17881375Y-13294459D02*
X17862328Y-13303982D01*
X17862328Y-13303982D02*
X17824232Y-13303982D01*
X17824232Y-13303982D02*
X17805185Y-13294459D01*
X17805185Y-13294459D02*
X17795661Y-13275411D01*
X17795661Y-13275411D02*
X17795661Y-13199221D01*
X17795661Y-13199221D02*
X17805185Y-13180173D01*
X17805185Y-13180173D02*
X17824232Y-13170649D01*
X17824232Y-13170649D02*
X17862328Y-13170649D01*
X17862328Y-13170649D02*
X17881375Y-13180173D01*
X17881375Y-13180173D02*
X17890899Y-13199221D01*
X17890899Y-13199221D02*
X17890899Y-13218268D01*
X17890899Y-13218268D02*
X17795661Y-13237316D01*
X18062328Y-13303982D02*
X18062328Y-13103982D01*
X18062328Y-13294459D02*
X18043280Y-13303982D01*
X18043280Y-13303982D02*
X18005185Y-13303982D01*
X18005185Y-13303982D02*
X17986137Y-13294459D01*
X17986137Y-13294459D02*
X17976613Y-13284935D01*
X17976613Y-13284935D02*
X17967090Y-13265887D01*
X17967090Y-13265887D02*
X17967090Y-13208744D01*
X17967090Y-13208744D02*
X17976613Y-13189697D01*
X17976613Y-13189697D02*
X17986137Y-13180173D01*
X17986137Y-13180173D02*
X18005185Y-13170649D01*
X18005185Y-13170649D02*
X18043280Y-13170649D01*
X18043280Y-13170649D02*
X18062328Y-13180173D01*
X18138518Y-13380173D02*
X18148042Y-13370649D01*
X18148042Y-13370649D02*
X18167090Y-13342078D01*
X18167090Y-13342078D02*
X18176613Y-13323030D01*
X18176613Y-13323030D02*
X18186137Y-13294459D01*
X18186137Y-13294459D02*
X18195661Y-13246840D01*
X18195661Y-13246840D02*
X18195661Y-13208744D01*
X18195661Y-13208744D02*
X18186137Y-13161125D01*
X18186137Y-13161125D02*
X18176613Y-13132554D01*
X18176613Y-13132554D02*
X18167090Y-13113506D01*
X18167090Y-13113506D02*
X18148042Y-13084935D01*
X18148042Y-13084935D02*
X18138518Y-13075411D01*
M02*
