G04 #@! TF.GenerationSoftware,KiCad,Pcbnew,9.0.5*
G04 #@! TF.CreationDate,2025-11-30T01:11:54+01:00*
G04 #@! TF.ProjectId,xmasCrystalBall,786d6173-4372-4797-9374-616c42616c6c,rev?*
G04 #@! TF.SameCoordinates,Original*
G04 #@! TF.FileFunction,Legend,Bot*
G04 #@! TF.FilePolarity,Positive*
%FSLAX46Y46*%
G04 Gerber Fmt 4.6, Leading zero omitted, Abs format (unit mm)*
G04 Created by KiCad (PCBNEW 9.0.5) date 2025-11-30 01:11:54*
%MOMM*%
%LPD*%
G01*
G04 APERTURE LIST*
G04 Aperture macros list*
%AMRoundRect*
0 Rectangle with rounded corners*
0 $1 Rounding radius*
0 $2 $3 $4 $5 $6 $7 $8 $9 X,Y pos of 4 corners*
0 Add a 4 corners polygon primitive as box body*
4,1,4,$2,$3,$4,$5,$6,$7,$8,$9,$2,$3,0*
0 Add four circle primitives for the rounded corners*
1,1,$1+$1,$2,$3*
1,1,$1+$1,$4,$5*
1,1,$1+$1,$6,$7*
1,1,$1+$1,$8,$9*
0 Add four rect primitives between the rounded corners*
20,1,$1+$1,$2,$3,$4,$5,0*
20,1,$1+$1,$4,$5,$6,$7,0*
20,1,$1+$1,$6,$7,$8,$9,0*
20,1,$1+$1,$8,$9,$2,$3,0*%
%AMRotRect*
0 Rectangle, with rotation*
0 The origin of the aperture is its center*
0 $1 length*
0 $2 width*
0 $3 Rotation angle, in degrees counterclockwise*
0 Add horizontal line*
21,1,$1,$2,0,0,$3*%
G04 Aperture macros list end*
%ADD10C,0.162718*%
%ADD11C,0.216958*%
%ADD12C,0.271197*%
%ADD13C,0.271198*%
%ADD14C,0.175000*%
%ADD15C,0.100000*%
%ADD16C,0.127000*%
%ADD17C,0.200000*%
%ADD18C,1.500000*%
%ADD19RotRect,0.800000X0.950000X135.000000*%
%ADD20R,0.800000X0.950000*%
%ADD21R,0.800000X0.900000*%
%ADD22RoundRect,0.102000X-0.883883X1.590990X-1.590990X0.883883X0.883883X-1.590990X1.590990X-0.883883X0*%
%ADD23RoundRect,0.102000X-0.671751X1.732412X-1.732412X0.671751X0.671751X-1.732412X1.732412X-0.671751X0*%
%ADD24RotRect,1.350000X0.400000X45.000000*%
%ADD25R,0.950000X0.800000*%
%ADD26RotRect,0.800000X0.950000X315.000000*%
%ADD27R,1.125000X1.750000*%
%ADD28RotRect,1.125000X1.750000X135.000000*%
%ADD29R,0.590000X0.450000*%
%ADD30C,0.100000*%
%ADD31R,0.300000X1.140000*%
%ADD32O,1.200000X2.000000*%
%ADD33O,1.200000X2.300000*%
%ADD34RotRect,0.800000X0.950000X225.000000*%
%ADD35R,1.400000X0.450000*%
%ADD36R,1.880000X2.000000*%
%ADD37R,0.700000X1.100000*%
%ADD38R,0.250000X0.700000*%
%ADD39R,0.300000X0.450000*%
%ADD40R,1.600000X1.000000*%
%ADD41R,0.900000X0.800000*%
%ADD42RotRect,0.800000X0.950000X60.000000*%
%ADD43R,1.800000X1.800000*%
G04 APERTURE END LIST*
D10*
X164232999Y-101363364D02*
X166032868Y-102401160D01*
D11*
X120086038Y-86783604D02*
X122401782Y-85427451D01*
X123396438Y-84873263D02*
X123545472Y-84128092D01*
D12*
X155087268Y-81006676D02*
X154900970Y-80075211D01*
X156963784Y-83574140D02*
X156204583Y-82923398D01*
D11*
X123542600Y-86652571D02*
X123406562Y-85897782D01*
D10*
X166052673Y-100331564D02*
X166052673Y-104494783D01*
D12*
X156257432Y-79554069D02*
X157221014Y-78612514D01*
X155161671Y-84711293D02*
X156138513Y-83756538D01*
D11*
X123922946Y-84554956D02*
X124209690Y-83466226D01*
X124919127Y-86783602D02*
X122603389Y-85427450D01*
X120891270Y-85126736D02*
X121608729Y-84873264D01*
D12*
X159345895Y-80998228D02*
X157980040Y-80608791D01*
D11*
X120089579Y-83992409D02*
X122388711Y-85318077D01*
D10*
X166032829Y-100331564D02*
X166032829Y-104494783D01*
D11*
X121668251Y-87836958D02*
X122449724Y-87073154D01*
D10*
X166713143Y-102024005D02*
X166824919Y-101465126D01*
X166498270Y-103564484D02*
X166042750Y-103174038D01*
D11*
X122515812Y-82616676D02*
X122515811Y-88167634D01*
D12*
X159220840Y-79905605D02*
X156346929Y-81562691D01*
D11*
X125026251Y-85907922D02*
X123936432Y-86198243D01*
X121462564Y-86652572D02*
X121598603Y-85897782D01*
D10*
X164834267Y-102214109D02*
X165372362Y-102024005D01*
X167935503Y-102799999D02*
X167118138Y-103017740D01*
D11*
X121082220Y-84554958D02*
X120795475Y-83466227D01*
D10*
X167251235Y-102214109D02*
X166713143Y-102024005D01*
D12*
X153183905Y-83394601D02*
X156078584Y-81699409D01*
D11*
X122560371Y-84318070D02*
X123084543Y-83862444D01*
X122489353Y-82616676D02*
X122489353Y-88167634D01*
X122444792Y-84318069D02*
X121920621Y-83862446D01*
D12*
X156221122Y-78185941D02*
X156221122Y-85124639D01*
X157321906Y-81006676D02*
X157508198Y-80075211D01*
D13*
X156276822Y-80312683D02*
X156932037Y-79743150D01*
D11*
X119989535Y-84866508D02*
X121082220Y-84554958D01*
D10*
X164977480Y-101785275D02*
X164762421Y-100968727D01*
D12*
X154190445Y-81323516D02*
X155087268Y-81006676D01*
X153063276Y-80998230D02*
X154429133Y-80608792D01*
X158234218Y-81969480D02*
X157334560Y-82287324D01*
D10*
X166052673Y-104494783D02*
X166032829Y-104494783D01*
D11*
X124113893Y-85126736D02*
X123396438Y-84873263D01*
X122489353Y-88167634D02*
X122515811Y-88167634D01*
D12*
X157247498Y-84711296D02*
X156270660Y-83756533D01*
D11*
X124126288Y-85643508D02*
X123406562Y-85897782D01*
X120788527Y-87319063D02*
X121068732Y-86198243D01*
D12*
X154904562Y-83230811D02*
X155074612Y-82287323D01*
D10*
X167108024Y-101785274D02*
X167323082Y-100968726D01*
D12*
X156188049Y-78185941D02*
X156188049Y-85124639D01*
X157504608Y-83230810D02*
X157334560Y-82287324D01*
D10*
X166822765Y-103358486D02*
X166720735Y-102792394D01*
D11*
X120878877Y-85643509D02*
X121598603Y-85897782D01*
D12*
X157980040Y-80608791D02*
X158338469Y-79247878D01*
D10*
X166042752Y-101183423D02*
X165432893Y-100587507D01*
D12*
X154062016Y-84063924D02*
X154386501Y-82765984D01*
D10*
X166042752Y-101645284D02*
X165606280Y-101265891D01*
X167855160Y-103456759D02*
X166052638Y-102401159D01*
X164757210Y-103858354D02*
X164967364Y-103017740D01*
D12*
X156132348Y-80312682D02*
X155477134Y-79743153D01*
D11*
X122502584Y-83752489D02*
X123315725Y-82957934D01*
D10*
X165372362Y-102024005D02*
X165260582Y-101465127D01*
D11*
X121608729Y-84873264D02*
X121459690Y-84128092D01*
D10*
X167328293Y-103858355D02*
X167118138Y-103017740D01*
D12*
X154174954Y-81969482D02*
X155074612Y-82287323D01*
D11*
X123336913Y-87836960D02*
X122555442Y-87073150D01*
D13*
X159359172Y-82299999D02*
X158007274Y-82660135D01*
D10*
X164824972Y-102601689D02*
X165364768Y-102792393D01*
D11*
X125015630Y-84866506D02*
X123922946Y-84554956D01*
D10*
X164150000Y-102800000D02*
X164967364Y-103017740D01*
D13*
X158347155Y-84063925D02*
X158022669Y-82765984D01*
D10*
X166668499Y-104246778D02*
X166042753Y-103635173D01*
D11*
X123109941Y-86927236D02*
X122502581Y-86406641D01*
D10*
X167852504Y-101363363D02*
X166052638Y-102401159D01*
D12*
X158218724Y-81323516D02*
X157321906Y-81006676D01*
D10*
X165587234Y-103564484D02*
X166042750Y-103174038D01*
X167260531Y-102601688D02*
X166720735Y-102792394D01*
X165262737Y-103358486D02*
X165364768Y-102792393D01*
X167927537Y-102018937D02*
X167108024Y-101785274D01*
D12*
X159225266Y-83394599D02*
X156330594Y-81699409D01*
D10*
X166042752Y-101183423D02*
X166652608Y-100587508D01*
D12*
X156188049Y-85124639D02*
X156221122Y-85124639D01*
X156151742Y-79554068D02*
X155188156Y-78612512D01*
D10*
X164230343Y-103456760D02*
X166032868Y-102401160D01*
X166032829Y-100331564D02*
X166052673Y-100331564D01*
D11*
X124216638Y-87319063D02*
X123936432Y-86198243D01*
X119978914Y-85907924D02*
X121068732Y-86198243D01*
X122502584Y-83752489D02*
X121689439Y-82957933D01*
D12*
X153188331Y-79905607D02*
X156062246Y-81562692D01*
D10*
X165417003Y-104246776D02*
X166042753Y-103635173D01*
D11*
X124915586Y-83992407D02*
X122616457Y-85318076D01*
D10*
X164157966Y-102018938D02*
X164977480Y-101785275D01*
D12*
X155445390Y-83574140D02*
X156204583Y-82923398D01*
X156221122Y-78185941D02*
X156188049Y-78185941D01*
D11*
X122515812Y-82616676D02*
X122489353Y-82616676D01*
D12*
X154429133Y-80608792D02*
X154070701Y-79247879D01*
D11*
X121895226Y-86927236D02*
X122502581Y-86406641D01*
D12*
X153050000Y-82300000D02*
X154401900Y-82660137D01*
D10*
X166042752Y-101645284D02*
X166479222Y-101265890D01*
D14*
X130035081Y-120611636D02*
X129940800Y-120564496D01*
X129940800Y-120564496D02*
X129893660Y-120564496D01*
X129893660Y-120564496D02*
X129822949Y-120588066D01*
X129822949Y-120588066D02*
X129752239Y-120658777D01*
X129752239Y-120658777D02*
X129728668Y-120729488D01*
X129728668Y-120729488D02*
X129728668Y-120776628D01*
X129728668Y-120776628D02*
X129752239Y-120847339D01*
X129752239Y-120847339D02*
X129940800Y-121035900D01*
X129940800Y-121035900D02*
X130435775Y-120540926D01*
X130435775Y-120540926D02*
X130270783Y-120375934D01*
X130270783Y-120375934D02*
X130200073Y-120352364D01*
X130200073Y-120352364D02*
X130152932Y-120352364D01*
X130152932Y-120352364D02*
X130082222Y-120375934D01*
X130082222Y-120375934D02*
X130035081Y-120423075D01*
X130035081Y-120423075D02*
X130011511Y-120493785D01*
X130011511Y-120493785D02*
X130011511Y-120540926D01*
X130011511Y-120540926D02*
X130035081Y-120611636D01*
X130035081Y-120611636D02*
X130200073Y-120776628D01*
X129375115Y-120470215D02*
X129445826Y-120493785D01*
X129445826Y-120493785D02*
X129492966Y-120493785D01*
X129492966Y-120493785D02*
X129563677Y-120470215D01*
X129563677Y-120470215D02*
X129705098Y-120328794D01*
X129705098Y-120328794D02*
X129728668Y-120258083D01*
X129728668Y-120258083D02*
X129728668Y-120210943D01*
X129728668Y-120210943D02*
X129705098Y-120140232D01*
X129705098Y-120140232D02*
X129634387Y-120069521D01*
X129634387Y-120069521D02*
X129563677Y-120045951D01*
X129563677Y-120045951D02*
X129516536Y-120045951D01*
X129516536Y-120045951D02*
X129445826Y-120069521D01*
X129445826Y-120069521D02*
X129304404Y-120210943D01*
X129304404Y-120210943D02*
X129280834Y-120281653D01*
X129280834Y-120281653D02*
X129280834Y-120328794D01*
X129280834Y-120328794D02*
X129304404Y-120399504D01*
X129304404Y-120399504D02*
X129375115Y-120470215D01*
X128997992Y-120093092D02*
X129327975Y-119763108D01*
X129233694Y-119857389D02*
X129257264Y-119786679D01*
X129257264Y-119786679D02*
X129257264Y-119739538D01*
X129257264Y-119739538D02*
X129233694Y-119668828D01*
X129233694Y-119668828D02*
X129186553Y-119621687D01*
X129021562Y-119456696D02*
X128691579Y-119786679D01*
X128974422Y-119503836D02*
X128974422Y-119456696D01*
X128974422Y-119456696D02*
X128950851Y-119385985D01*
X128950851Y-119385985D02*
X128880141Y-119315274D01*
X128880141Y-119315274D02*
X128809430Y-119291704D01*
X128809430Y-119291704D02*
X128738719Y-119315274D01*
X128738719Y-119315274D02*
X128479447Y-119574547D01*
X128031613Y-119126713D02*
X128290885Y-118867440D01*
X128290885Y-118867440D02*
X128361596Y-118843870D01*
X128361596Y-118843870D02*
X128432307Y-118867440D01*
X128432307Y-118867440D02*
X128526587Y-118961721D01*
X128526587Y-118961721D02*
X128550158Y-119032432D01*
X128055183Y-119103143D02*
X128078753Y-119173853D01*
X128078753Y-119173853D02*
X128196604Y-119291704D01*
X128196604Y-119291704D02*
X128267315Y-119315275D01*
X128267315Y-119315275D02*
X128338026Y-119291704D01*
X128338026Y-119291704D02*
X128385166Y-119244564D01*
X128385166Y-119244564D02*
X128408736Y-119173853D01*
X128408736Y-119173853D02*
X128385166Y-119103143D01*
X128385166Y-119103143D02*
X128267315Y-118985292D01*
X128267315Y-118985292D02*
X128243745Y-118914581D01*
X127513068Y-118089623D02*
X127418787Y-118042483D01*
X127418787Y-118042483D02*
X127371647Y-118042483D01*
X127371647Y-118042483D02*
X127300936Y-118066053D01*
X127300936Y-118066053D02*
X127230226Y-118136764D01*
X127230226Y-118136764D02*
X127206655Y-118207475D01*
X127206655Y-118207475D02*
X127206655Y-118254615D01*
X127206655Y-118254615D02*
X127230226Y-118325326D01*
X127230226Y-118325326D02*
X127418787Y-118513887D01*
X127418787Y-118513887D02*
X127913762Y-118018913D01*
X127913762Y-118018913D02*
X127748770Y-117853921D01*
X127748770Y-117853921D02*
X127678060Y-117830351D01*
X127678060Y-117830351D02*
X127630919Y-117830351D01*
X127630919Y-117830351D02*
X127560209Y-117853921D01*
X127560209Y-117853921D02*
X127513068Y-117901062D01*
X127513068Y-117901062D02*
X127489498Y-117971772D01*
X127489498Y-117971772D02*
X127489498Y-118018913D01*
X127489498Y-118018913D02*
X127513068Y-118089623D01*
X127513068Y-118089623D02*
X127678060Y-118254615D01*
X126923813Y-118018913D02*
X127253796Y-117688930D01*
X127418787Y-117523938D02*
X127418787Y-117571078D01*
X127418787Y-117571078D02*
X127371647Y-117571078D01*
X127371647Y-117571078D02*
X127371647Y-117523938D01*
X127371647Y-117523938D02*
X127418787Y-117523938D01*
X127418787Y-117523938D02*
X127371647Y-117571078D01*
X126688111Y-117783211D02*
X127018094Y-117453228D01*
X126923813Y-117547508D02*
X126947383Y-117476798D01*
X126947383Y-117476798D02*
X126947383Y-117429657D01*
X126947383Y-117429657D02*
X126923813Y-117358947D01*
X126923813Y-117358947D02*
X126876672Y-117311806D01*
X126310987Y-117406087D02*
X126381698Y-117429658D01*
X126381698Y-117429658D02*
X126428838Y-117429658D01*
X126428838Y-117429658D02*
X126499549Y-117406087D01*
X126499549Y-117406087D02*
X126640970Y-117264666D01*
X126640970Y-117264666D02*
X126664541Y-117193955D01*
X126664541Y-117193955D02*
X126664541Y-117146815D01*
X126664541Y-117146815D02*
X126640970Y-117076104D01*
X126640970Y-117076104D02*
X126570260Y-117005393D01*
X126570260Y-117005393D02*
X126499549Y-116981823D01*
X126499549Y-116981823D02*
X126452409Y-116981823D01*
X126452409Y-116981823D02*
X126381698Y-117005393D01*
X126381698Y-117005393D02*
X126240276Y-117146815D01*
X126240276Y-117146815D02*
X126216706Y-117217525D01*
X126216706Y-117217525D02*
X126216706Y-117264666D01*
X126216706Y-117264666D02*
X126240276Y-117335377D01*
X126240276Y-117335377D02*
X126310987Y-117406087D01*
X126028145Y-116227576D02*
X126028145Y-116180436D01*
X126028145Y-116180436D02*
X126004575Y-116109725D01*
X126004575Y-116109725D02*
X125886724Y-115991874D01*
X125886724Y-115991874D02*
X125816013Y-115968304D01*
X125816013Y-115968304D02*
X125768872Y-115968304D01*
X125768872Y-115968304D02*
X125698162Y-115991874D01*
X125698162Y-115991874D02*
X125651021Y-116039015D01*
X125651021Y-116039015D02*
X125603881Y-116133296D01*
X125603881Y-116133296D02*
X125603881Y-116698981D01*
X125603881Y-116698981D02*
X125297468Y-116392568D01*
X125368178Y-115473329D02*
X125462459Y-115567610D01*
X125462459Y-115567610D02*
X125486029Y-115638321D01*
X125486029Y-115638321D02*
X125486029Y-115685461D01*
X125486029Y-115685461D02*
X125462459Y-115803312D01*
X125462459Y-115803312D02*
X125391749Y-115921163D01*
X125391749Y-115921163D02*
X125203187Y-116109725D01*
X125203187Y-116109725D02*
X125132476Y-116133295D01*
X125132476Y-116133295D02*
X125085336Y-116133295D01*
X125085336Y-116133295D02*
X125014625Y-116109725D01*
X125014625Y-116109725D02*
X124920344Y-116015444D01*
X124920344Y-116015444D02*
X124896774Y-115944734D01*
X124896774Y-115944734D02*
X124896774Y-115897593D01*
X124896774Y-115897593D02*
X124920344Y-115826882D01*
X124920344Y-115826882D02*
X125038195Y-115709031D01*
X125038195Y-115709031D02*
X125108906Y-115685461D01*
X125108906Y-115685461D02*
X125156046Y-115685461D01*
X125156046Y-115685461D02*
X125226757Y-115709031D01*
X125226757Y-115709031D02*
X125321038Y-115803312D01*
X125321038Y-115803312D02*
X125344608Y-115874023D01*
X125344608Y-115874023D02*
X125344608Y-115921163D01*
X125344608Y-115921163D02*
X125321038Y-115991874D01*
X124661071Y-115661891D02*
X124613931Y-115661891D01*
X124613931Y-115661891D02*
X124613931Y-115709031D01*
X124613931Y-115709031D02*
X124661071Y-115709031D01*
X124661071Y-115709031D02*
X124661071Y-115661891D01*
X124661071Y-115661891D02*
X124613931Y-115709031D01*
X124118956Y-115214057D02*
X124401799Y-115496899D01*
X124260378Y-115355478D02*
X124755352Y-114860503D01*
X124755352Y-114860503D02*
X124731782Y-114978354D01*
X124731782Y-114978354D02*
X124731782Y-115072635D01*
X124731782Y-115072635D02*
X124755352Y-115143346D01*
X123647552Y-114742652D02*
X123930394Y-115025494D01*
X123788973Y-114884073D02*
X124283948Y-114389098D01*
X124283948Y-114389098D02*
X124260377Y-114506950D01*
X124260377Y-114506950D02*
X124260377Y-114601230D01*
X124260377Y-114601230D02*
X124283948Y-114671941D01*
X123482560Y-114483379D02*
X123435419Y-114483379D01*
X123435419Y-114483379D02*
X123435419Y-114530519D01*
X123435419Y-114530519D02*
X123482560Y-114530519D01*
X123482560Y-114530519D02*
X123482560Y-114483379D01*
X123482560Y-114483379D02*
X123435419Y-114530519D01*
X123671122Y-113870553D02*
X123671122Y-113823413D01*
X123671122Y-113823413D02*
X123647552Y-113752702D01*
X123647552Y-113752702D02*
X123529700Y-113634851D01*
X123529700Y-113634851D02*
X123458990Y-113611281D01*
X123458990Y-113611281D02*
X123411849Y-113611281D01*
X123411849Y-113611281D02*
X123341139Y-113634851D01*
X123341139Y-113634851D02*
X123293998Y-113681992D01*
X123293998Y-113681992D02*
X123246858Y-113776272D01*
X123246858Y-113776272D02*
X123246858Y-114341958D01*
X123246858Y-114341958D02*
X122940445Y-114035545D01*
X123129006Y-113234157D02*
X123081866Y-113187017D01*
X123081866Y-113187017D02*
X123011155Y-113163446D01*
X123011155Y-113163446D02*
X122964015Y-113163446D01*
X122964015Y-113163446D02*
X122893304Y-113187017D01*
X122893304Y-113187017D02*
X122775453Y-113257727D01*
X122775453Y-113257727D02*
X122657602Y-113375578D01*
X122657602Y-113375578D02*
X122586891Y-113493430D01*
X122586891Y-113493430D02*
X122563321Y-113564140D01*
X122563321Y-113564140D02*
X122563321Y-113611281D01*
X122563321Y-113611281D02*
X122586891Y-113681991D01*
X122586891Y-113681991D02*
X122634032Y-113729132D01*
X122634032Y-113729132D02*
X122704742Y-113752702D01*
X122704742Y-113752702D02*
X122751883Y-113752702D01*
X122751883Y-113752702D02*
X122822593Y-113729132D01*
X122822593Y-113729132D02*
X122940445Y-113658421D01*
X122940445Y-113658421D02*
X123058296Y-113540570D01*
X123058296Y-113540570D02*
X123129006Y-113422719D01*
X123129006Y-113422719D02*
X123152577Y-113352008D01*
X123152577Y-113352008D02*
X123152577Y-113304868D01*
X123152577Y-113304868D02*
X123129006Y-113234157D01*
X122728312Y-112927744D02*
X122728312Y-112880603D01*
X122728312Y-112880603D02*
X122704742Y-112809893D01*
X122704742Y-112809893D02*
X122586891Y-112692042D01*
X122586891Y-112692042D02*
X122516180Y-112668471D01*
X122516180Y-112668471D02*
X122469040Y-112668471D01*
X122469040Y-112668471D02*
X122398329Y-112692042D01*
X122398329Y-112692042D02*
X122351189Y-112739182D01*
X122351189Y-112739182D02*
X122304048Y-112833463D01*
X122304048Y-112833463D02*
X122304048Y-113399148D01*
X122304048Y-113399148D02*
X121997635Y-113092735D01*
X122044776Y-112149926D02*
X122280478Y-112385628D01*
X122280478Y-112385628D02*
X122068346Y-112644901D01*
X122068346Y-112644901D02*
X122068346Y-112597760D01*
X122068346Y-112597760D02*
X122044776Y-112527050D01*
X122044776Y-112527050D02*
X121926924Y-112409199D01*
X121926924Y-112409199D02*
X121856214Y-112385628D01*
X121856214Y-112385628D02*
X121809073Y-112385628D01*
X121809073Y-112385628D02*
X121738363Y-112409199D01*
X121738363Y-112409199D02*
X121620511Y-112527050D01*
X121620511Y-112527050D02*
X121596941Y-112597760D01*
X121596941Y-112597760D02*
X121596941Y-112644901D01*
X121596941Y-112644901D02*
X121620511Y-112715612D01*
X121620511Y-112715612D02*
X121738363Y-112833463D01*
X121738363Y-112833463D02*
X121809073Y-112857033D01*
X121809073Y-112857033D02*
X121856214Y-112857033D01*
X121361239Y-112362058D02*
X121314098Y-112362058D01*
X121314098Y-112362058D02*
X121314098Y-112409198D01*
X121314098Y-112409198D02*
X121361239Y-112409198D01*
X121361239Y-112409198D02*
X121361239Y-112362058D01*
X121361239Y-112362058D02*
X121314098Y-112409198D01*
X154766666Y-122398066D02*
X154666666Y-122431400D01*
X154666666Y-122431400D02*
X154633332Y-122464733D01*
X154633332Y-122464733D02*
X154599999Y-122531400D01*
X154599999Y-122531400D02*
X154599999Y-122631400D01*
X154599999Y-122631400D02*
X154633332Y-122698066D01*
X154633332Y-122698066D02*
X154666666Y-122731400D01*
X154666666Y-122731400D02*
X154733332Y-122764733D01*
X154733332Y-122764733D02*
X154999999Y-122764733D01*
X154999999Y-122764733D02*
X154999999Y-122064733D01*
X154999999Y-122064733D02*
X154766666Y-122064733D01*
X154766666Y-122064733D02*
X154699999Y-122098066D01*
X154699999Y-122098066D02*
X154666666Y-122131400D01*
X154666666Y-122131400D02*
X154633332Y-122198066D01*
X154633332Y-122198066D02*
X154633332Y-122264733D01*
X154633332Y-122264733D02*
X154666666Y-122331400D01*
X154666666Y-122331400D02*
X154699999Y-122364733D01*
X154699999Y-122364733D02*
X154766666Y-122398066D01*
X154766666Y-122398066D02*
X154999999Y-122398066D01*
X154399999Y-122064733D02*
X153999999Y-122064733D01*
X154199999Y-122764733D02*
X154199999Y-122064733D01*
X153766666Y-122764733D02*
X153766666Y-122064733D01*
X153766666Y-122064733D02*
X153366666Y-122764733D01*
X153366666Y-122764733D02*
X153366666Y-122064733D01*
X152666666Y-122764733D02*
X153066666Y-122764733D01*
X152866666Y-122764733D02*
X152866666Y-122064733D01*
X152866666Y-122064733D02*
X152933333Y-122164733D01*
X152933333Y-122164733D02*
X153000000Y-122231400D01*
X153000000Y-122231400D02*
X153066666Y-122264733D01*
X129708736Y-118909555D02*
X129708736Y-118956696D01*
X129708736Y-118956696D02*
X129755876Y-119050976D01*
X129755876Y-119050976D02*
X129803017Y-119098117D01*
X129803017Y-119098117D02*
X129897298Y-119145257D01*
X129897298Y-119145257D02*
X129991579Y-119145257D01*
X129991579Y-119145257D02*
X130062289Y-119121687D01*
X130062289Y-119121687D02*
X130180140Y-119050976D01*
X130180140Y-119050976D02*
X130250851Y-118980266D01*
X130250851Y-118980266D02*
X130321562Y-118862415D01*
X130321562Y-118862415D02*
X130345132Y-118791704D01*
X130345132Y-118791704D02*
X130345132Y-118697423D01*
X130345132Y-118697423D02*
X130297992Y-118603142D01*
X130297992Y-118603142D02*
X130250851Y-118556002D01*
X130250851Y-118556002D02*
X130156570Y-118508861D01*
X130156570Y-118508861D02*
X130109430Y-118508861D01*
X129449463Y-118744564D02*
X129779447Y-118414580D01*
X129685166Y-118508861D02*
X129708736Y-118438151D01*
X129708736Y-118438151D02*
X129708736Y-118391010D01*
X129708736Y-118391010D02*
X129685166Y-118320299D01*
X129685166Y-118320299D02*
X129638025Y-118273159D01*
X129520174Y-118155308D02*
X129072340Y-118367440D01*
X129284472Y-117919606D02*
X129072340Y-118367440D01*
X129072340Y-118367440D02*
X129001629Y-118532432D01*
X129001629Y-118532432D02*
X129001629Y-118579572D01*
X129001629Y-118579572D02*
X129025200Y-118650283D01*
X128813068Y-118061027D02*
X128742357Y-118037457D01*
X128742357Y-118037457D02*
X128648076Y-117943176D01*
X128648076Y-117943176D02*
X128624506Y-117872466D01*
X128624506Y-117872466D02*
X128648076Y-117801755D01*
X128648076Y-117801755D02*
X128671646Y-117778185D01*
X128671646Y-117778185D02*
X128742357Y-117754615D01*
X128742357Y-117754615D02*
X128813068Y-117778185D01*
X128813068Y-117778185D02*
X128883778Y-117848895D01*
X128883778Y-117848895D02*
X128954489Y-117872466D01*
X128954489Y-117872466D02*
X129025200Y-117848895D01*
X129025200Y-117848895D02*
X129048770Y-117825325D01*
X129048770Y-117825325D02*
X129072340Y-117754615D01*
X129072340Y-117754615D02*
X129048770Y-117683904D01*
X129048770Y-117683904D02*
X128978059Y-117613193D01*
X128978059Y-117613193D02*
X128907349Y-117589623D01*
X128765927Y-117401061D02*
X128577365Y-117212499D01*
X128860208Y-117165359D02*
X128435944Y-117589623D01*
X128435944Y-117589623D02*
X128365233Y-117613193D01*
X128365233Y-117613193D02*
X128294523Y-117589623D01*
X128294523Y-117589623D02*
X128247382Y-117542482D01*
X127870258Y-117165359D02*
X128129531Y-116906086D01*
X128129531Y-116906086D02*
X128200242Y-116882516D01*
X128200242Y-116882516D02*
X128270952Y-116906086D01*
X128270952Y-116906086D02*
X128365233Y-117000367D01*
X128365233Y-117000367D02*
X128388803Y-117071078D01*
X127893829Y-117141788D02*
X127917399Y-117212499D01*
X127917399Y-117212499D02*
X128035250Y-117330350D01*
X128035250Y-117330350D02*
X128105961Y-117353920D01*
X128105961Y-117353920D02*
X128176671Y-117330350D01*
X128176671Y-117330350D02*
X128223812Y-117283210D01*
X128223812Y-117283210D02*
X128247382Y-117212499D01*
X128247382Y-117212499D02*
X128223812Y-117141788D01*
X128223812Y-117141788D02*
X128105961Y-117023937D01*
X128105961Y-117023937D02*
X128082391Y-116953227D01*
X127563846Y-116858946D02*
X127634556Y-116882516D01*
X127634556Y-116882516D02*
X127705267Y-116858946D01*
X127705267Y-116858946D02*
X128129531Y-116434682D01*
X127092441Y-115868996D02*
X126998160Y-115821856D01*
X126998160Y-115821856D02*
X126951020Y-115821856D01*
X126951020Y-115821856D02*
X126880309Y-115845426D01*
X126880309Y-115845426D02*
X126809599Y-115916137D01*
X126809599Y-115916137D02*
X126786028Y-115986848D01*
X126786028Y-115986848D02*
X126786028Y-116033988D01*
X126786028Y-116033988D02*
X126809599Y-116104699D01*
X126809599Y-116104699D02*
X126998160Y-116293260D01*
X126998160Y-116293260D02*
X127493135Y-115798286D01*
X127493135Y-115798286D02*
X127328144Y-115633294D01*
X127328144Y-115633294D02*
X127257433Y-115609724D01*
X127257433Y-115609724D02*
X127210292Y-115609724D01*
X127210292Y-115609724D02*
X127139582Y-115633294D01*
X127139582Y-115633294D02*
X127092441Y-115680435D01*
X127092441Y-115680435D02*
X127068871Y-115751145D01*
X127068871Y-115751145D02*
X127068871Y-115798286D01*
X127068871Y-115798286D02*
X127092441Y-115868996D01*
X127092441Y-115868996D02*
X127257433Y-116033988D01*
X126291054Y-115586154D02*
X126550326Y-115326881D01*
X126550326Y-115326881D02*
X126621037Y-115303311D01*
X126621037Y-115303311D02*
X126691747Y-115326881D01*
X126691747Y-115326881D02*
X126786028Y-115421162D01*
X126786028Y-115421162D02*
X126809599Y-115491873D01*
X126314624Y-115562583D02*
X126338194Y-115633294D01*
X126338194Y-115633294D02*
X126456045Y-115751145D01*
X126456045Y-115751145D02*
X126526756Y-115774716D01*
X126526756Y-115774716D02*
X126597466Y-115751145D01*
X126597466Y-115751145D02*
X126644607Y-115704005D01*
X126644607Y-115704005D02*
X126668177Y-115633294D01*
X126668177Y-115633294D02*
X126644607Y-115562583D01*
X126644607Y-115562583D02*
X126526756Y-115444732D01*
X126526756Y-115444732D02*
X126503186Y-115374022D01*
X125984641Y-115279741D02*
X126055352Y-115303311D01*
X126055352Y-115303311D02*
X126126062Y-115279741D01*
X126126062Y-115279741D02*
X126550326Y-114855477D01*
X125725368Y-115020468D02*
X125796079Y-115044039D01*
X125796079Y-115044039D02*
X125866789Y-115020468D01*
X125866789Y-115020468D02*
X126291054Y-114596204D01*
X125159683Y-114454783D02*
X125654657Y-113959808D01*
X125654657Y-113959808D02*
X125466096Y-113771246D01*
X125466096Y-113771246D02*
X125395385Y-113747676D01*
X125395385Y-113747676D02*
X125348245Y-113747676D01*
X125348245Y-113747676D02*
X125277534Y-113771246D01*
X125277534Y-113771246D02*
X125206823Y-113841957D01*
X125206823Y-113841957D02*
X125183253Y-113912668D01*
X125183253Y-113912668D02*
X125183253Y-113959808D01*
X125183253Y-113959808D02*
X125206823Y-114030519D01*
X125206823Y-114030519D02*
X125395385Y-114219081D01*
X124429006Y-113629825D02*
X124429006Y-113676965D01*
X124429006Y-113676965D02*
X124476146Y-113771246D01*
X124476146Y-113771246D02*
X124523287Y-113818387D01*
X124523287Y-113818387D02*
X124617568Y-113865527D01*
X124617568Y-113865527D02*
X124711848Y-113865527D01*
X124711848Y-113865527D02*
X124782559Y-113841957D01*
X124782559Y-113841957D02*
X124900410Y-113771246D01*
X124900410Y-113771246D02*
X124971121Y-113700536D01*
X124971121Y-113700536D02*
X125041832Y-113582684D01*
X125041832Y-113582684D02*
X125065402Y-113511974D01*
X125065402Y-113511974D02*
X125065402Y-113417693D01*
X125065402Y-113417693D02*
X125018261Y-113323412D01*
X125018261Y-113323412D02*
X124971121Y-113276272D01*
X124971121Y-113276272D02*
X124876840Y-113229131D01*
X124876840Y-113229131D02*
X124829700Y-113229131D01*
X124264014Y-113040569D02*
X124169733Y-112993429D01*
X124169733Y-112993429D02*
X124122593Y-112993429D01*
X124122593Y-112993429D02*
X124051882Y-113016999D01*
X124051882Y-113016999D02*
X123981171Y-113087710D01*
X123981171Y-113087710D02*
X123957601Y-113158420D01*
X123957601Y-113158420D02*
X123957601Y-113205561D01*
X123957601Y-113205561D02*
X123981171Y-113276272D01*
X123981171Y-113276272D02*
X124169733Y-113464833D01*
X124169733Y-113464833D02*
X124664708Y-112969859D01*
X124664708Y-112969859D02*
X124499716Y-112804867D01*
X124499716Y-112804867D02*
X124429006Y-112781297D01*
X124429006Y-112781297D02*
X124381865Y-112781297D01*
X124381865Y-112781297D02*
X124311155Y-112804867D01*
X124311155Y-112804867D02*
X124264014Y-112852007D01*
X124264014Y-112852007D02*
X124240444Y-112922718D01*
X124240444Y-112922718D02*
X124240444Y-112969859D01*
X124240444Y-112969859D02*
X124264014Y-113040569D01*
X124264014Y-113040569D02*
X124429006Y-113205561D01*
X134766666Y-122398066D02*
X134666666Y-122431400D01*
X134666666Y-122431400D02*
X134633332Y-122464733D01*
X134633332Y-122464733D02*
X134599999Y-122531400D01*
X134599999Y-122531400D02*
X134599999Y-122631400D01*
X134599999Y-122631400D02*
X134633332Y-122698066D01*
X134633332Y-122698066D02*
X134666666Y-122731400D01*
X134666666Y-122731400D02*
X134733332Y-122764733D01*
X134733332Y-122764733D02*
X134999999Y-122764733D01*
X134999999Y-122764733D02*
X134999999Y-122064733D01*
X134999999Y-122064733D02*
X134766666Y-122064733D01*
X134766666Y-122064733D02*
X134699999Y-122098066D01*
X134699999Y-122098066D02*
X134666666Y-122131400D01*
X134666666Y-122131400D02*
X134633332Y-122198066D01*
X134633332Y-122198066D02*
X134633332Y-122264733D01*
X134633332Y-122264733D02*
X134666666Y-122331400D01*
X134666666Y-122331400D02*
X134699999Y-122364733D01*
X134699999Y-122364733D02*
X134766666Y-122398066D01*
X134766666Y-122398066D02*
X134999999Y-122398066D01*
X134399999Y-122064733D02*
X133999999Y-122064733D01*
X134199999Y-122764733D02*
X134199999Y-122064733D01*
X133766666Y-122764733D02*
X133766666Y-122064733D01*
X133766666Y-122064733D02*
X133366666Y-122764733D01*
X133366666Y-122764733D02*
X133366666Y-122064733D01*
X133066666Y-122131400D02*
X133033333Y-122098066D01*
X133033333Y-122098066D02*
X132966666Y-122064733D01*
X132966666Y-122064733D02*
X132800000Y-122064733D01*
X132800000Y-122064733D02*
X132733333Y-122098066D01*
X132733333Y-122098066D02*
X132700000Y-122131400D01*
X132700000Y-122131400D02*
X132666666Y-122198066D01*
X132666666Y-122198066D02*
X132666666Y-122264733D01*
X132666666Y-122264733D02*
X132700000Y-122364733D01*
X132700000Y-122364733D02*
X133100000Y-122764733D01*
X133100000Y-122764733D02*
X132666666Y-122764733D01*
D15*
X142692633Y-81325996D02*
X143824004Y-82457367D01*
X144407367Y-81874004D02*
X143275996Y-80742633D01*
X147825000Y-114062500D02*
X149425000Y-114062500D01*
X149425000Y-113237500D02*
X147825000Y-113237500D01*
X137750000Y-114412500D02*
X139350000Y-114412500D01*
X139350000Y-113587500D02*
X137750000Y-113587500D01*
X128390000Y-112050000D02*
X131310000Y-112050000D01*
X128390000Y-113350000D02*
X128390000Y-112050000D01*
X131310000Y-112050000D02*
X131310000Y-113350000D01*
X131310000Y-113350000D02*
X128390000Y-113350000D01*
D16*
X154161917Y-109598061D02*
X159748061Y-104011917D01*
X159535929Y-114972072D02*
X154161917Y-109598061D01*
X159748061Y-104011917D02*
X165122072Y-109385929D01*
X165122072Y-109385929D02*
X159535929Y-114972072D01*
D15*
X122996268Y-105707538D02*
X126107538Y-102596268D01*
X126107538Y-102596268D02*
X130703732Y-107192462D01*
X127062132Y-110763351D02*
X127062132Y-110904773D01*
X127062132Y-110904773D02*
X127203553Y-110763351D01*
X127203553Y-110763351D02*
X127062132Y-110763351D01*
X127592462Y-110303732D02*
X122996268Y-105707538D01*
X130703732Y-107192462D02*
X127592462Y-110303732D01*
D17*
X127727817Y-109773402D02*
G75*
G02*
X127527817Y-109773402I-100000J0D01*
G01*
X127527817Y-109773402D02*
G75*
G02*
X127727817Y-109773402I100000J0D01*
G01*
D15*
X127187500Y-111900000D02*
X127187500Y-113500000D01*
X128012500Y-113500000D02*
X128012500Y-111900000D01*
X141550000Y-110512500D02*
X143150000Y-110512500D01*
X143150000Y-109687500D02*
X141550000Y-109687500D01*
X132492633Y-104925996D02*
X133624004Y-106057367D01*
X134207367Y-105474004D02*
X133075996Y-104342633D01*
X133450000Y-111600000D02*
X136650000Y-111600000D01*
X136650000Y-110000000D02*
X133450000Y-110000000D01*
X136700000Y-72712500D02*
X138300000Y-72712500D01*
X138300000Y-71887500D02*
X136700000Y-71887500D01*
X159052944Y-116434315D02*
X161315685Y-118697056D01*
X162447056Y-117565685D02*
X160184315Y-115302944D01*
X143000000Y-76100000D02*
X144800000Y-76100000D01*
X143000000Y-77100000D02*
X143000000Y-76100000D01*
X144400000Y-77100000D02*
X144400000Y-76100000D01*
X144800000Y-76100000D02*
X144800000Y-77100000D01*
X144800000Y-77100000D02*
X143000000Y-77100000D01*
X145050000Y-77000000D02*
G75*
G02*
X144950000Y-77000000I-50000J0D01*
G01*
X144950000Y-77000000D02*
G75*
G02*
X145050000Y-77000000I50000J0D01*
G01*
X150787500Y-118400000D02*
X150787500Y-120000000D01*
X151612500Y-120000000D02*
X151612500Y-118400000D01*
X139380000Y-117825000D02*
X148320000Y-117825000D01*
X139380000Y-125175000D02*
X139380000Y-117825000D01*
X148320000Y-117825000D02*
X148320000Y-125175000D01*
X148320000Y-125175000D02*
X139380000Y-125175000D01*
X136625000Y-77412500D02*
X138225000Y-77412500D01*
X138225000Y-76587500D02*
X136625000Y-76587500D01*
X136137500Y-118450000D02*
X136137500Y-120050000D01*
X136962500Y-120050000D02*
X136962500Y-118450000D01*
X130875996Y-108757367D02*
X132007367Y-107625996D01*
X131424004Y-107042633D02*
X130292633Y-108174004D01*
X133237500Y-74100000D02*
X133237500Y-75700000D01*
X134062500Y-75700000D02*
X134062500Y-74100000D01*
X123092633Y-109525996D02*
X124224004Y-110657367D01*
X124807367Y-110074004D02*
X123675996Y-108942633D01*
X141550000Y-114000000D02*
X141650000Y-113900000D01*
X141650000Y-113900000D02*
X141750000Y-114000000D01*
X141750000Y-114000000D02*
X141550000Y-114000000D01*
X142350000Y-111100000D02*
X145350000Y-111100000D01*
X142350000Y-114100000D02*
X142350000Y-111100000D01*
X142750000Y-114100000D02*
X142750000Y-111100000D01*
X145350000Y-111100000D02*
X145350000Y-114100000D01*
X145350000Y-114100000D02*
X142350000Y-114100000D01*
X148337500Y-73300000D02*
X148337500Y-74900000D01*
X149162500Y-74900000D02*
X149162500Y-73300000D01*
X132175000Y-117525000D02*
X135525000Y-117525000D01*
X132175000Y-120875000D02*
X132175000Y-117525000D01*
X132850000Y-117525000D02*
X132850000Y-120875000D01*
X133650000Y-119200000D02*
X132850000Y-119200000D01*
X134050000Y-119200000D02*
X133650000Y-119400000D01*
X134050000Y-119200000D02*
X134850000Y-119200000D01*
X134850000Y-117525000D02*
X134850000Y-120875000D01*
X135525000Y-117525000D02*
X135525000Y-120875000D01*
X135525000Y-120875000D02*
X132175000Y-120875000D01*
X133850000Y-112300000D02*
X133850000Y-112500000D01*
X133850000Y-112500000D02*
X133950000Y-112400000D01*
X133950000Y-112400000D02*
X133850000Y-112300000D01*
X134100000Y-112350000D02*
X136200000Y-112350000D01*
X136200000Y-114450000D01*
X134100000Y-114450000D01*
X134100000Y-112350000D01*
X128975996Y-110657367D02*
X130107367Y-109525996D01*
X129524004Y-108942633D02*
X128392633Y-110074004D01*
X137750000Y-112912500D02*
X139350000Y-112912500D01*
X139350000Y-112087500D02*
X137750000Y-112087500D01*
X136800000Y-73340000D02*
X138100000Y-73340000D01*
X136800000Y-76260000D02*
X136800000Y-73340000D01*
X138100000Y-73340000D02*
X138100000Y-76260000D01*
X138100000Y-76260000D02*
X136800000Y-76260000D01*
X133050000Y-116162500D02*
X134650000Y-116162500D01*
X134650000Y-115337500D02*
X133050000Y-115337500D01*
X153050000Y-116162500D02*
X154650000Y-116162500D01*
X154650000Y-115337500D02*
X153050000Y-115337500D01*
X144512000Y-110509000D02*
X146112000Y-110509000D01*
X145038000Y-109842500D02*
X145546000Y-110096500D01*
X145038000Y-110350500D02*
X145038000Y-109842500D01*
X145546000Y-110096500D02*
X145038000Y-110350500D01*
X145546000Y-110350500D02*
X145546000Y-109842500D01*
X146112000Y-109684000D02*
X144512000Y-109684000D01*
D17*
X146974000Y-110858500D02*
G75*
G02*
X146774000Y-110858500I-100000J0D01*
G01*
X146774000Y-110858500D02*
G75*
G02*
X146974000Y-110858500I100000J0D01*
G01*
D15*
X131737500Y-111900000D02*
X131737500Y-113500000D01*
X132562500Y-113500000D02*
X132562500Y-111900000D01*
X134537500Y-74100000D02*
X134537500Y-75700000D01*
X135362500Y-75700000D02*
X135362500Y-74100000D01*
X152175000Y-117525000D02*
X155525000Y-117525000D01*
X152175000Y-120875000D02*
X152175000Y-117525000D01*
X152850000Y-120875000D02*
X152850000Y-117525000D01*
X153650000Y-119200000D02*
X152850000Y-119200000D01*
X153650000Y-119200000D02*
X154050000Y-119000000D01*
X154050000Y-119200000D02*
X154850000Y-119200000D01*
X154850000Y-120875000D02*
X154850000Y-117525000D01*
X155525000Y-117525000D02*
X155525000Y-120875000D01*
X155525000Y-120875000D02*
X152175000Y-120875000D01*
X144375000Y-99312500D02*
X145975000Y-99312500D01*
X145975000Y-98487500D02*
X144375000Y-98487500D01*
X141050000Y-115612500D02*
X142650000Y-115612500D01*
X142650000Y-114787500D02*
X141050000Y-114787500D01*
X142507235Y-92699070D02*
X143307235Y-91313431D01*
X142592765Y-90900930D02*
X141792765Y-92286569D01*
X140100000Y-67950000D02*
X140100000Y-75450000D01*
X140100000Y-75450000D02*
X147600000Y-75450000D01*
X143100000Y-69075000D02*
X143850000Y-68325000D01*
X143850000Y-68325000D02*
X144600000Y-69075000D01*
X144600000Y-69075000D02*
X143100000Y-69075000D01*
X146450000Y-67950000D02*
X140100000Y-67950000D01*
X147600000Y-69000000D02*
X146450000Y-67950000D01*
X147600000Y-75450000D02*
X147600000Y-69000000D01*
X145350000Y-115612500D02*
X146950000Y-115612500D01*
X146950000Y-114787500D02*
X145350000Y-114787500D01*
X143100000Y-78512500D02*
X144700000Y-78512500D01*
X144700000Y-77687500D02*
X143100000Y-77687500D01*
%LPC*%
D18*
X119850000Y-104200000D03*
X121250000Y-106200000D03*
D19*
X144133363Y-82183363D03*
X142966637Y-81016637D03*
D20*
X149450000Y-113650000D03*
X147800000Y-113650000D03*
X137725000Y-114000000D03*
X139375000Y-114000000D03*
D21*
X130800000Y-113800000D03*
X129850000Y-111600000D03*
X128900000Y-113800000D03*
D18*
X118650000Y-106200000D03*
D22*
X161374406Y-112638620D03*
X162788620Y-111224406D03*
D23*
X160384457Y-105496841D03*
X155646841Y-110234457D03*
D24*
X126885355Y-110551219D03*
X126425736Y-110091600D03*
X125966117Y-109631981D03*
X125506497Y-109172361D03*
X125046878Y-108712742D03*
X124587258Y-108253122D03*
X124127639Y-107793503D03*
X123668019Y-107333883D03*
X123208400Y-106874264D03*
X122748781Y-106414645D03*
X126814645Y-102348781D03*
X127274264Y-102808400D03*
X127733883Y-103268019D03*
X128193503Y-103727639D03*
X128653122Y-104187258D03*
X129112742Y-104646878D03*
X129572361Y-105106497D03*
X130031981Y-105566117D03*
X130491600Y-106025736D03*
X130951219Y-106485355D03*
D25*
X127600000Y-113525000D03*
X127600000Y-111875000D03*
D20*
X141525000Y-110100000D03*
X143175000Y-110100000D03*
D26*
X132766637Y-104616637D03*
X133933363Y-105783363D03*
D27*
X136512500Y-110800000D03*
X133587500Y-110800000D03*
D18*
X122650000Y-104200000D03*
D20*
X136675000Y-72300000D03*
X138325000Y-72300000D03*
D28*
X161784144Y-118034144D03*
X159715856Y-115965856D03*
D29*
X142845000Y-76600000D03*
X144955000Y-76600000D03*
D25*
X151200000Y-118375000D03*
X151200000Y-120025000D03*
D30*
X146740000Y-118960000D03*
X140960000Y-118960000D03*
D31*
X147200000Y-117890000D03*
X146400000Y-117890000D03*
X145100000Y-117890000D03*
X144100000Y-117890000D03*
X143600000Y-117890000D03*
X142600000Y-117890000D03*
X141300000Y-117890000D03*
X140500000Y-117890000D03*
X140800000Y-117890000D03*
X141600000Y-117890000D03*
X142100000Y-117890000D03*
X143100000Y-117890000D03*
X144600000Y-117890000D03*
X145600000Y-117890000D03*
X146100000Y-117890000D03*
X146900000Y-117890000D03*
D32*
X148175000Y-122660000D03*
D33*
X148175000Y-118480000D03*
D32*
X139525000Y-122660000D03*
D33*
X139525000Y-118480000D03*
D20*
X138250000Y-77000000D03*
X136600000Y-77000000D03*
D25*
X136550000Y-118425000D03*
X136550000Y-120075000D03*
D34*
X131733363Y-107316637D03*
X130566637Y-108483363D03*
D25*
X133650000Y-75725000D03*
X133650000Y-74075000D03*
D26*
X123366637Y-109216637D03*
X124533363Y-110383363D03*
D35*
X141650000Y-113575000D03*
X141650000Y-112925000D03*
X141650000Y-112275000D03*
X141650000Y-111625000D03*
X146050000Y-111625000D03*
X146050000Y-112275000D03*
X146050000Y-112925000D03*
X146050000Y-113575000D03*
D36*
X143850000Y-112600000D03*
D25*
X148750000Y-73275000D03*
X148750000Y-74925000D03*
D37*
X132850000Y-117250000D03*
X132850000Y-121150000D03*
X134850000Y-117250000D03*
X134850000Y-121150000D03*
D38*
X135350000Y-119200000D03*
X132350000Y-119200000D03*
D39*
X134500000Y-112425000D03*
X135150000Y-112425000D03*
X135800000Y-112425000D03*
X135800000Y-114375000D03*
X135150000Y-114375000D03*
X134500000Y-114375000D03*
D40*
X135150000Y-113400000D03*
D34*
X129833363Y-109216637D03*
X128666637Y-110383363D03*
D20*
X137725000Y-112500000D03*
X139375000Y-112500000D03*
D41*
X136350000Y-75750000D03*
X138550000Y-74800000D03*
X136350000Y-73850000D03*
D20*
X133025000Y-115750000D03*
X134675000Y-115750000D03*
X153025000Y-115750000D03*
X154675000Y-115750000D03*
X144487000Y-110096500D03*
X146137000Y-110096500D03*
D25*
X132150000Y-113525000D03*
X132150000Y-111875000D03*
X134950000Y-75725000D03*
X134950000Y-74075000D03*
D37*
X154850000Y-121150000D03*
X154850000Y-117250000D03*
X152850000Y-121150000D03*
X152850000Y-117250000D03*
D38*
X152350000Y-119200000D03*
X155350000Y-119200000D03*
D20*
X144350000Y-98900000D03*
X146000000Y-98900000D03*
X141025000Y-115200000D03*
X142675000Y-115200000D03*
D42*
X142137500Y-92514471D03*
X142962500Y-91085529D03*
D18*
X117250000Y-104200000D03*
D43*
X146925000Y-74775000D03*
X140775000Y-74775000D03*
X140775000Y-68625000D03*
X146925000Y-68625000D03*
D20*
X146975000Y-115200000D03*
X145325000Y-115200000D03*
X143075000Y-78100000D03*
X144725000Y-78100000D03*
%LPD*%
M02*
