M48
; DRILL file {KiCad 9.0.5} date 2025-11-30T01:12:24+0100
; FORMAT={-:-/ absolute / metric / decimal}
; #@! TF.CreationDate,2025-11-30T01:12:24+01:00
; #@! TF.GenerationSoftware,Kicad,Pcbnew,9.0.5
; #@! TF.FileFunction,Plated,1,2,PTH
FMAT,2
METRIC
; #@! TA.AperFunction,Plated,PTH,ViaDrill
T1C0.300
; #@! TA.AperFunction,Plated,PTH,ComponentDrill
T2C0.600
%
G90
G05
T1
X119.25Y-109.5
X122.15Y-108.4
X123.85Y-105.95
X124.6Y-106.45
X124.75Y-112.5
X125.25Y-110.9
X126.55Y-101.9
X126.85Y-104.152
X128.9Y-114.65
X129.85Y-117.7
X130.65Y-111.5
X131.95Y-111.1
X132.95Y-108.6
X133.25Y-104.1
X133.35Y-106.283
X133.45Y-98.9
X133.45Y-115.003
X133.85Y-112.5
X135.6Y-116.2
X136.75Y-112.5
X136.75Y-113.5
X136.75Y-114.5
X137.65Y-88.2
X138.1Y-117.7
X138.1Y-119.2
X138.55Y-111.7
X139.6Y-110.95
X139.75Y-103.3
X139.847Y-97.7
X139.95Y-115.1
X140.35Y-89.2
X141.345Y-91.009
X142.25Y-77.2
X143.45Y-99.5
X143.85Y-120.2
X144.05Y-114.9
X144.65Y-80.3
X144.85Y-83.9
X146.026Y-100.776
X147.34Y-112.59
X147.45Y-91.2
X147.65Y-110.6
X148.05Y-114.9
X148.1Y-115.7
X148.95Y-112.2
X149.85Y-116.5
X149.85Y-117.7
X149.85Y-119.2
X150.35Y-113.65
X151.873Y-96.722
X156.006Y-104.564
X157.55Y-118.4
X164.05Y-113.5
X164.55Y-112.9
X164.55Y-114.0
X164.85Y-111.6
X165.15Y-112.4
X165.15Y-113.5
X165.65Y-111.9
X165.75Y-112.9
X166.25Y-112.4
X166.55Y-111.6
T2
X139.525Y-119.03G85X139.525Y-117.93
G05
X139.525Y-123.01G85X139.525Y-122.31
G05
X148.175Y-119.03G85X148.175Y-117.93
G05
X148.175Y-123.01G85X148.175Y-122.31
G05
M30
