G04 #@! TF.GenerationSoftware,KiCad,Pcbnew,9.0.5*
G04 #@! TF.CreationDate,2025-11-30T01:11:54+01:00*
G04 #@! TF.ProjectId,xmasCrystalBall,786d6173-4372-4797-9374-616c42616c6c,rev?*
G04 #@! TF.SameCoordinates,Original*
G04 #@! TF.FileFunction,Soldermask,Top*
G04 #@! TF.FilePolarity,Negative*
%FSLAX46Y46*%
G04 Gerber Fmt 4.6, Leading zero omitted, Abs format (unit mm)*
G04 Created by KiCad (PCBNEW 9.0.5) date 2025-11-30 01:11:54*
%MOMM*%
%LPD*%
G01*
G04 APERTURE LIST*
G04 Aperture macros list*
%AMRotRect*
0 Rectangle, with rotation*
0 The origin of the aperture is its center*
0 $1 length*
0 $2 width*
0 $3 Rotation angle, in degrees counterclockwise*
0 Add horizontal line*
21,1,$1,$2,0,0,$3*%
G04 Aperture macros list end*
%ADD10RotRect,0.700000X0.700000X290.000000*%
%ADD11R,0.700000X0.700000*%
%ADD12RotRect,0.700000X0.700000X300.000000*%
%ADD13RotRect,0.700000X0.700000X330.000000*%
%ADD14RotRect,0.700000X0.700000X240.000000*%
%ADD15RotRect,0.700000X0.700000X220.000000*%
%ADD16RotRect,0.700000X0.700000X140.000000*%
%ADD17RotRect,0.700000X0.700000X60.000000*%
%ADD18C,0.100000*%
%ADD19O,1.200000X2.000000*%
%ADD20O,1.200000X2.300000*%
G04 APERTURE END LIST*
D10*
X151453883Y-95952071D03*
X150420220Y-96328291D03*
X151046117Y-98047929D03*
X152079780Y-97671709D03*
D11*
X148302413Y-90068814D03*
X148302413Y-91168814D03*
X150132413Y-91168814D03*
X150132413Y-90068814D03*
X156800000Y-103985000D03*
X155700000Y-103985000D03*
X155700000Y-105815000D03*
X156800000Y-105815000D03*
D12*
X145336227Y-82713773D03*
X144383599Y-83263773D03*
X145298599Y-84848599D03*
X146251227Y-84298599D03*
D13*
X137547587Y-87016187D03*
X136997587Y-87968814D03*
X138582413Y-88883813D03*
X139132413Y-87931186D03*
D14*
X134316401Y-98401401D03*
X133363773Y-97851401D03*
X132448773Y-99436227D03*
X133401401Y-99986227D03*
D15*
X139857067Y-104442649D03*
X139150000Y-103600000D03*
X137748139Y-104776301D03*
X138455206Y-105618950D03*
D11*
X143050000Y-75900000D03*
X143050000Y-77000000D03*
X144880000Y-77000000D03*
X144880000Y-75900000D03*
D16*
X140697397Y-98009475D03*
X141404463Y-97166826D03*
X140002603Y-95990525D03*
X139295537Y-96833174D03*
D14*
X141902628Y-90350000D03*
X140950000Y-89800000D03*
X140035000Y-91384826D03*
X140987628Y-91934826D03*
D17*
X128516186Y-107417413D03*
X129468814Y-107967413D03*
X130383814Y-106382587D03*
X129431186Y-105832587D03*
D11*
X145135000Y-100850000D03*
X145135000Y-101950000D03*
X146965000Y-101950000D03*
X146965000Y-100850000D03*
D18*
X146740000Y-118960000D03*
X140960000Y-118960000D03*
D19*
X148175000Y-122660000D03*
D20*
X148175000Y-118480000D03*
D19*
X139525000Y-122660000D03*
D20*
X139525000Y-118480000D03*
M02*
