%TF.GenerationSoftware,KiCad,Pcbnew,9.0.5*%
%TF.CreationDate,2025-11-30T01:12:24+01:00*%
%TF.ProjectId,xmasCrystalBall,786d6173-4372-4797-9374-616c42616c6c,rev?*%
%TF.SameCoordinates,Original*%
%TF.FileFunction,Drillmap*%
%TF.FilePolarity,Positive*%
%FSLAX45Y45*%
G04 Gerber Fmt 4.5, Leading zero omitted, Abs format (unit mm)*
G04 Created by KiCad (PCBNEW 9.0.5) date 2025-11-30 01:12:24*
%MOMM*%
%LPD*%
G01*
G04 APERTURE LIST*
%ADD10C,0.050000*%
%ADD11C,0.200000*%
%ADD12C,0.100000*%
G04 APERTURE END LIST*
D10*
X14646467Y-6581420D02*
G75*
G02*
X14123533Y-6581420I-261467J-2988581D01*
G01*
X14123533Y-6581420D02*
G75*
G02*
X14646467Y-6581420I261467J301420D01*
G01*
X14493166Y-6280000D02*
G75*
G02*
X14276833Y-6280000I-108167J0D01*
G01*
X14276833Y-6280000D02*
G75*
G02*
X14493166Y-6280000I108167J0D01*
G01*
D11*
D12*
X11910000Y-10935000D02*
X11940000Y-10965000D01*
X11940000Y-10935000D02*
X11910000Y-10965000D01*
X12200000Y-10825000D02*
X12230000Y-10855000D01*
X12230000Y-10825000D02*
X12200000Y-10855000D01*
X12370000Y-10580000D02*
X12400000Y-10610000D01*
X12400000Y-10580000D02*
X12370000Y-10610000D01*
X12445000Y-10630000D02*
X12475000Y-10660000D01*
X12475000Y-10630000D02*
X12445000Y-10660000D01*
X12460000Y-11235000D02*
X12490000Y-11265000D01*
X12490000Y-11235000D02*
X12460000Y-11265000D01*
X12510000Y-11075000D02*
X12540000Y-11105000D01*
X12540000Y-11075000D02*
X12510000Y-11105000D01*
X12640000Y-10175000D02*
X12670000Y-10205000D01*
X12670000Y-10175000D02*
X12640000Y-10205000D01*
X12670000Y-10400190D02*
X12700000Y-10430190D01*
X12700000Y-10400190D02*
X12670000Y-10430190D01*
X12875000Y-11450000D02*
X12905000Y-11480000D01*
X12905000Y-11450000D02*
X12875000Y-11480000D01*
X12970000Y-11755000D02*
X13000000Y-11785000D01*
X13000000Y-11755000D02*
X12970000Y-11785000D01*
X13050000Y-11135000D02*
X13080000Y-11165000D01*
X13080000Y-11135000D02*
X13050000Y-11165000D01*
X13180000Y-11095000D02*
X13210000Y-11125000D01*
X13210000Y-11095000D02*
X13180000Y-11125000D01*
X13280000Y-10845000D02*
X13310000Y-10875000D01*
X13310000Y-10845000D02*
X13280000Y-10875000D01*
X13310000Y-10395000D02*
X13340000Y-10425000D01*
X13340000Y-10395000D02*
X13310000Y-10425000D01*
X13320000Y-10613336D02*
X13350000Y-10643336D01*
X13350000Y-10613336D02*
X13320000Y-10643336D01*
X13330000Y-9875000D02*
X13360000Y-9905000D01*
X13360000Y-9875000D02*
X13330000Y-9905000D01*
X13330000Y-11485300D02*
X13360000Y-11515300D01*
X13360000Y-11485300D02*
X13330000Y-11515300D01*
X13370000Y-11235000D02*
X13400000Y-11265000D01*
X13400000Y-11235000D02*
X13370000Y-11265000D01*
X13545000Y-11605000D02*
X13575000Y-11635000D01*
X13575000Y-11605000D02*
X13545000Y-11635000D01*
X13660000Y-11235000D02*
X13690000Y-11265000D01*
X13690000Y-11235000D02*
X13660000Y-11265000D01*
X13660000Y-11335000D02*
X13690000Y-11365000D01*
X13690000Y-11335000D02*
X13660000Y-11365000D01*
X13660000Y-11435000D02*
X13690000Y-11465000D01*
X13690000Y-11435000D02*
X13660000Y-11465000D01*
X13750000Y-8805000D02*
X13780000Y-8835000D01*
X13780000Y-8805000D02*
X13750000Y-8835000D01*
X13795000Y-11755000D02*
X13825000Y-11785000D01*
X13825000Y-11755000D02*
X13795000Y-11785000D01*
X13795000Y-11905000D02*
X13825000Y-11935000D01*
X13825000Y-11905000D02*
X13795000Y-11935000D01*
X13840000Y-11155000D02*
X13870000Y-11185000D01*
X13870000Y-11155000D02*
X13840000Y-11185000D01*
X13945000Y-11080000D02*
X13975000Y-11110000D01*
X13975000Y-11080000D02*
X13945000Y-11110000D01*
X13960000Y-10315000D02*
X13990000Y-10345000D01*
X13990000Y-10315000D02*
X13960000Y-10345000D01*
X13969748Y-9755000D02*
X13999748Y-9785000D01*
X13999748Y-9755000D02*
X13969748Y-9785000D01*
X13980000Y-11495000D02*
X14010000Y-11525000D01*
X14010000Y-11495000D02*
X13980000Y-11525000D01*
X14020000Y-8905000D02*
X14050000Y-8935000D01*
X14050000Y-8905000D02*
X14020000Y-8935000D01*
X14119461Y-9085933D02*
X14149461Y-9115933D01*
X14149461Y-9085933D02*
X14119461Y-9115933D01*
X14210000Y-7705000D02*
X14240000Y-7735000D01*
X14240000Y-7705000D02*
X14210000Y-7735000D01*
X14330000Y-9935000D02*
X14360000Y-9965000D01*
X14360000Y-9935000D02*
X14330000Y-9965000D01*
X14370000Y-12005000D02*
X14400000Y-12035000D01*
X14400000Y-12005000D02*
X14370000Y-12035000D01*
X14390000Y-11475000D02*
X14420000Y-11505000D01*
X14420000Y-11475000D02*
X14390000Y-11505000D01*
X14450000Y-8015000D02*
X14480000Y-8045000D01*
X14480000Y-8015000D02*
X14450000Y-8045000D01*
X14470000Y-8375000D02*
X14500000Y-8405000D01*
X14500000Y-8375000D02*
X14470000Y-8405000D01*
X14587573Y-10062574D02*
X14617573Y-10092574D01*
X14617573Y-10062574D02*
X14587573Y-10092574D01*
X14719050Y-11244050D02*
X14749050Y-11274050D01*
X14749050Y-11244050D02*
X14719050Y-11274050D01*
X14730000Y-9105000D02*
X14760000Y-9135000D01*
X14760000Y-9105000D02*
X14730000Y-9135000D01*
X14750000Y-11045000D02*
X14780000Y-11075000D01*
X14780000Y-11045000D02*
X14750000Y-11075000D01*
X14790000Y-11475000D02*
X14820000Y-11505000D01*
X14820000Y-11475000D02*
X14790000Y-11505000D01*
X14795000Y-11555000D02*
X14825000Y-11585000D01*
X14825000Y-11555000D02*
X14795000Y-11585000D01*
X14880000Y-11205000D02*
X14910000Y-11235000D01*
X14910000Y-11205000D02*
X14880000Y-11235000D01*
X14970000Y-11635000D02*
X15000000Y-11665000D01*
X15000000Y-11635000D02*
X14970000Y-11665000D01*
X14970000Y-11755000D02*
X15000000Y-11785000D01*
X15000000Y-11755000D02*
X14970000Y-11785000D01*
X14970000Y-11905000D02*
X15000000Y-11935000D01*
X15000000Y-11905000D02*
X14970000Y-11935000D01*
X15020000Y-11350000D02*
X15050000Y-11380000D01*
X15050000Y-11350000D02*
X15020000Y-11380000D01*
X15172254Y-9657179D02*
X15202254Y-9687179D01*
X15202254Y-9657179D02*
X15172254Y-9687179D01*
X15585552Y-10441400D02*
X15615552Y-10471400D01*
X15615552Y-10441400D02*
X15585552Y-10471400D01*
X15740000Y-11825000D02*
X15770000Y-11855000D01*
X15770000Y-11825000D02*
X15740000Y-11855000D01*
X16390000Y-11335000D02*
X16420000Y-11365000D01*
X16420000Y-11335000D02*
X16390000Y-11365000D01*
X16440000Y-11275000D02*
X16470000Y-11305000D01*
X16470000Y-11275000D02*
X16440000Y-11305000D01*
X16440000Y-11385000D02*
X16470000Y-11415000D01*
X16470000Y-11385000D02*
X16440000Y-11415000D01*
X16470000Y-11145000D02*
X16500000Y-11175000D01*
X16500000Y-11145000D02*
X16470000Y-11175000D01*
X16500000Y-11225000D02*
X16530000Y-11255000D01*
X16530000Y-11225000D02*
X16500000Y-11255000D01*
X16500000Y-11335000D02*
X16530000Y-11365000D01*
X16530000Y-11335000D02*
X16500000Y-11365000D01*
X16550000Y-11175000D02*
X16580000Y-11205000D01*
X16580000Y-11175000D02*
X16550000Y-11205000D01*
X16560000Y-11275000D02*
X16590000Y-11305000D01*
X16590000Y-11275000D02*
X16560000Y-11305000D01*
X16610000Y-11225000D02*
X16640000Y-11255000D01*
X16640000Y-11225000D02*
X16610000Y-11255000D01*
X16640000Y-11145000D02*
X16670000Y-11175000D01*
X16670000Y-11145000D02*
X16640000Y-11175000D01*
X13982500Y-11848000D02*
G75*
G02*
X13922500Y-11848000I-30000J0D01*
G01*
X13922500Y-11848000D02*
G75*
G02*
X13982500Y-11848000I30000J0D01*
G01*
X13982500Y-11903000D02*
X13982500Y-11793000D01*
X13922500Y-11793000D02*
G75*
G02*
X13982500Y-11793000I30000J0D01*
G01*
X13922500Y-11793000D02*
X13922500Y-11903000D01*
X13922500Y-11903000D02*
G75*
G03*
X13982500Y-11903000I30000J0D01*
G01*
X13982500Y-12266000D02*
G75*
G02*
X13922500Y-12266000I-30000J0D01*
G01*
X13922500Y-12266000D02*
G75*
G02*
X13982500Y-12266000I30000J0D01*
G01*
X13982500Y-12301000D02*
X13982500Y-12231000D01*
X13922500Y-12231000D02*
G75*
G02*
X13982500Y-12231000I30000J0D01*
G01*
X13922500Y-12231000D02*
X13922500Y-12301000D01*
X13922500Y-12301000D02*
G75*
G03*
X13982500Y-12301000I30000J0D01*
G01*
X14847500Y-11848000D02*
G75*
G02*
X14787500Y-11848000I-30000J0D01*
G01*
X14787500Y-11848000D02*
G75*
G02*
X14847500Y-11848000I30000J0D01*
G01*
X14847500Y-11903000D02*
X14847500Y-11793000D01*
X14787500Y-11793000D02*
G75*
G02*
X14847500Y-11793000I30000J0D01*
G01*
X14787500Y-11793000D02*
X14787500Y-11903000D01*
X14787500Y-11903000D02*
G75*
G03*
X14847500Y-11903000I30000J0D01*
G01*
X14847500Y-12266000D02*
G75*
G02*
X14787500Y-12266000I-30000J0D01*
G01*
X14787500Y-12266000D02*
G75*
G02*
X14847500Y-12266000I30000J0D01*
G01*
X14847500Y-12301000D02*
X14847500Y-12231000D01*
X14787500Y-12231000D02*
G75*
G02*
X14847500Y-12231000I30000J0D01*
G01*
X14787500Y-12231000D02*
X14787500Y-12301000D01*
X14787500Y-12301000D02*
G75*
G03*
X14847500Y-12301000I30000J0D01*
G01*
D11*
X11643279Y-12883982D02*
X11643279Y-12683982D01*
X11643279Y-12683982D02*
X11690898Y-12683982D01*
X11690898Y-12683982D02*
X11719470Y-12693506D01*
X11719470Y-12693506D02*
X11738518Y-12712554D01*
X11738518Y-12712554D02*
X11748041Y-12731601D01*
X11748041Y-12731601D02*
X11757565Y-12769697D01*
X11757565Y-12769697D02*
X11757565Y-12798268D01*
X11757565Y-12798268D02*
X11748041Y-12836363D01*
X11748041Y-12836363D02*
X11738518Y-12855411D01*
X11738518Y-12855411D02*
X11719470Y-12874459D01*
X11719470Y-12874459D02*
X11690898Y-12883982D01*
X11690898Y-12883982D02*
X11643279Y-12883982D01*
X11843279Y-12883982D02*
X11843279Y-12750649D01*
X11843279Y-12788744D02*
X11852803Y-12769697D01*
X11852803Y-12769697D02*
X11862327Y-12760173D01*
X11862327Y-12760173D02*
X11881375Y-12750649D01*
X11881375Y-12750649D02*
X11900422Y-12750649D01*
X11967089Y-12883982D02*
X11967089Y-12750649D01*
X11967089Y-12683982D02*
X11957565Y-12693506D01*
X11957565Y-12693506D02*
X11967089Y-12703030D01*
X11967089Y-12703030D02*
X11976613Y-12693506D01*
X11976613Y-12693506D02*
X11967089Y-12683982D01*
X11967089Y-12683982D02*
X11967089Y-12703030D01*
X12090898Y-12883982D02*
X12071851Y-12874459D01*
X12071851Y-12874459D02*
X12062327Y-12855411D01*
X12062327Y-12855411D02*
X12062327Y-12683982D01*
X12195660Y-12883982D02*
X12176613Y-12874459D01*
X12176613Y-12874459D02*
X12167089Y-12855411D01*
X12167089Y-12855411D02*
X12167089Y-12683982D01*
X12424232Y-12883982D02*
X12424232Y-12683982D01*
X12424232Y-12683982D02*
X12490899Y-12826840D01*
X12490899Y-12826840D02*
X12557565Y-12683982D01*
X12557565Y-12683982D02*
X12557565Y-12883982D01*
X12738518Y-12883982D02*
X12738518Y-12779221D01*
X12738518Y-12779221D02*
X12728994Y-12760173D01*
X12728994Y-12760173D02*
X12709946Y-12750649D01*
X12709946Y-12750649D02*
X12671851Y-12750649D01*
X12671851Y-12750649D02*
X12652803Y-12760173D01*
X12738518Y-12874459D02*
X12719470Y-12883982D01*
X12719470Y-12883982D02*
X12671851Y-12883982D01*
X12671851Y-12883982D02*
X12652803Y-12874459D01*
X12652803Y-12874459D02*
X12643279Y-12855411D01*
X12643279Y-12855411D02*
X12643279Y-12836363D01*
X12643279Y-12836363D02*
X12652803Y-12817316D01*
X12652803Y-12817316D02*
X12671851Y-12807792D01*
X12671851Y-12807792D02*
X12719470Y-12807792D01*
X12719470Y-12807792D02*
X12738518Y-12798268D01*
X12833756Y-12750649D02*
X12833756Y-12950649D01*
X12833756Y-12760173D02*
X12852803Y-12750649D01*
X12852803Y-12750649D02*
X12890899Y-12750649D01*
X12890899Y-12750649D02*
X12909946Y-12760173D01*
X12909946Y-12760173D02*
X12919470Y-12769697D01*
X12919470Y-12769697D02*
X12928994Y-12788744D01*
X12928994Y-12788744D02*
X12928994Y-12845887D01*
X12928994Y-12845887D02*
X12919470Y-12864935D01*
X12919470Y-12864935D02*
X12909946Y-12874459D01*
X12909946Y-12874459D02*
X12890899Y-12883982D01*
X12890899Y-12883982D02*
X12852803Y-12883982D01*
X12852803Y-12883982D02*
X12833756Y-12874459D01*
X13014708Y-12864935D02*
X13024232Y-12874459D01*
X13024232Y-12874459D02*
X13014708Y-12883982D01*
X13014708Y-12883982D02*
X13005184Y-12874459D01*
X13005184Y-12874459D02*
X13014708Y-12864935D01*
X13014708Y-12864935D02*
X13014708Y-12883982D01*
X13014708Y-12760173D02*
X13024232Y-12769697D01*
X13024232Y-12769697D02*
X13014708Y-12779221D01*
X13014708Y-12779221D02*
X13005184Y-12769697D01*
X13005184Y-12769697D02*
X13014708Y-12760173D01*
X13014708Y-12760173D02*
X13014708Y-12779221D01*
D12*
X11352503Y-13197499D02*
X11382503Y-13227499D01*
X11382503Y-13197499D02*
X11352503Y-13227499D01*
D11*
X11681375Y-13103982D02*
X11700422Y-13103982D01*
X11700422Y-13103982D02*
X11719470Y-13113506D01*
X11719470Y-13113506D02*
X11728994Y-13123030D01*
X11728994Y-13123030D02*
X11738518Y-13142078D01*
X11738518Y-13142078D02*
X11748041Y-13180173D01*
X11748041Y-13180173D02*
X11748041Y-13227792D01*
X11748041Y-13227792D02*
X11738518Y-13265887D01*
X11738518Y-13265887D02*
X11728994Y-13284935D01*
X11728994Y-13284935D02*
X11719470Y-13294459D01*
X11719470Y-13294459D02*
X11700422Y-13303982D01*
X11700422Y-13303982D02*
X11681375Y-13303982D01*
X11681375Y-13303982D02*
X11662327Y-13294459D01*
X11662327Y-13294459D02*
X11652803Y-13284935D01*
X11652803Y-13284935D02*
X11643279Y-13265887D01*
X11643279Y-13265887D02*
X11633756Y-13227792D01*
X11633756Y-13227792D02*
X11633756Y-13180173D01*
X11633756Y-13180173D02*
X11643279Y-13142078D01*
X11643279Y-13142078D02*
X11652803Y-13123030D01*
X11652803Y-13123030D02*
X11662327Y-13113506D01*
X11662327Y-13113506D02*
X11681375Y-13103982D01*
X11833756Y-13284935D02*
X11843279Y-13294459D01*
X11843279Y-13294459D02*
X11833756Y-13303982D01*
X11833756Y-13303982D02*
X11824232Y-13294459D01*
X11824232Y-13294459D02*
X11833756Y-13284935D01*
X11833756Y-13284935D02*
X11833756Y-13303982D01*
X11909946Y-13103982D02*
X12033756Y-13103982D01*
X12033756Y-13103982D02*
X11967089Y-13180173D01*
X11967089Y-13180173D02*
X11995660Y-13180173D01*
X11995660Y-13180173D02*
X12014708Y-13189697D01*
X12014708Y-13189697D02*
X12024232Y-13199221D01*
X12024232Y-13199221D02*
X12033756Y-13218268D01*
X12033756Y-13218268D02*
X12033756Y-13265887D01*
X12033756Y-13265887D02*
X12024232Y-13284935D01*
X12024232Y-13284935D02*
X12014708Y-13294459D01*
X12014708Y-13294459D02*
X11995660Y-13303982D01*
X11995660Y-13303982D02*
X11938518Y-13303982D01*
X11938518Y-13303982D02*
X11919470Y-13294459D01*
X11919470Y-13294459D02*
X11909946Y-13284935D01*
X12157565Y-13103982D02*
X12176613Y-13103982D01*
X12176613Y-13103982D02*
X12195660Y-13113506D01*
X12195660Y-13113506D02*
X12205184Y-13123030D01*
X12205184Y-13123030D02*
X12214708Y-13142078D01*
X12214708Y-13142078D02*
X12224232Y-13180173D01*
X12224232Y-13180173D02*
X12224232Y-13227792D01*
X12224232Y-13227792D02*
X12214708Y-13265887D01*
X12214708Y-13265887D02*
X12205184Y-13284935D01*
X12205184Y-13284935D02*
X12195660Y-13294459D01*
X12195660Y-13294459D02*
X12176613Y-13303982D01*
X12176613Y-13303982D02*
X12157565Y-13303982D01*
X12157565Y-13303982D02*
X12138518Y-13294459D01*
X12138518Y-13294459D02*
X12128994Y-13284935D01*
X12128994Y-13284935D02*
X12119470Y-13265887D01*
X12119470Y-13265887D02*
X12109946Y-13227792D01*
X12109946Y-13227792D02*
X12109946Y-13180173D01*
X12109946Y-13180173D02*
X12119470Y-13142078D01*
X12119470Y-13142078D02*
X12128994Y-13123030D01*
X12128994Y-13123030D02*
X12138518Y-13113506D01*
X12138518Y-13113506D02*
X12157565Y-13103982D01*
X12348041Y-13103982D02*
X12367089Y-13103982D01*
X12367089Y-13103982D02*
X12386137Y-13113506D01*
X12386137Y-13113506D02*
X12395660Y-13123030D01*
X12395660Y-13123030D02*
X12405184Y-13142078D01*
X12405184Y-13142078D02*
X12414708Y-13180173D01*
X12414708Y-13180173D02*
X12414708Y-13227792D01*
X12414708Y-13227792D02*
X12405184Y-13265887D01*
X12405184Y-13265887D02*
X12395660Y-13284935D01*
X12395660Y-13284935D02*
X12386137Y-13294459D01*
X12386137Y-13294459D02*
X12367089Y-13303982D01*
X12367089Y-13303982D02*
X12348041Y-13303982D01*
X12348041Y-13303982D02*
X12328994Y-13294459D01*
X12328994Y-13294459D02*
X12319470Y-13284935D01*
X12319470Y-13284935D02*
X12309946Y-13265887D01*
X12309946Y-13265887D02*
X12300422Y-13227792D01*
X12300422Y-13227792D02*
X12300422Y-13180173D01*
X12300422Y-13180173D02*
X12309946Y-13142078D01*
X12309946Y-13142078D02*
X12319470Y-13123030D01*
X12319470Y-13123030D02*
X12328994Y-13113506D01*
X12328994Y-13113506D02*
X12348041Y-13103982D01*
X12500422Y-13303982D02*
X12500422Y-13170649D01*
X12500422Y-13189697D02*
X12509946Y-13180173D01*
X12509946Y-13180173D02*
X12528994Y-13170649D01*
X12528994Y-13170649D02*
X12557565Y-13170649D01*
X12557565Y-13170649D02*
X12576613Y-13180173D01*
X12576613Y-13180173D02*
X12586137Y-13199221D01*
X12586137Y-13199221D02*
X12586137Y-13303982D01*
X12586137Y-13199221D02*
X12595660Y-13180173D01*
X12595660Y-13180173D02*
X12614708Y-13170649D01*
X12614708Y-13170649D02*
X12643279Y-13170649D01*
X12643279Y-13170649D02*
X12662327Y-13180173D01*
X12662327Y-13180173D02*
X12671851Y-13199221D01*
X12671851Y-13199221D02*
X12671851Y-13303982D01*
X12767089Y-13303982D02*
X12767089Y-13170649D01*
X12767089Y-13189697D02*
X12776613Y-13180173D01*
X12776613Y-13180173D02*
X12795660Y-13170649D01*
X12795660Y-13170649D02*
X12824232Y-13170649D01*
X12824232Y-13170649D02*
X12843280Y-13180173D01*
X12843280Y-13180173D02*
X12852803Y-13199221D01*
X12852803Y-13199221D02*
X12852803Y-13303982D01*
X12852803Y-13199221D02*
X12862327Y-13180173D01*
X12862327Y-13180173D02*
X12881375Y-13170649D01*
X12881375Y-13170649D02*
X12909946Y-13170649D01*
X12909946Y-13170649D02*
X12928994Y-13180173D01*
X12928994Y-13180173D02*
X12938518Y-13199221D01*
X12938518Y-13199221D02*
X12938518Y-13303982D01*
X13328994Y-13094459D02*
X13157565Y-13351601D01*
X13586137Y-13103982D02*
X13605184Y-13103982D01*
X13605184Y-13103982D02*
X13624232Y-13113506D01*
X13624232Y-13113506D02*
X13633756Y-13123030D01*
X13633756Y-13123030D02*
X13643280Y-13142078D01*
X13643280Y-13142078D02*
X13652803Y-13180173D01*
X13652803Y-13180173D02*
X13652803Y-13227792D01*
X13652803Y-13227792D02*
X13643280Y-13265887D01*
X13643280Y-13265887D02*
X13633756Y-13284935D01*
X13633756Y-13284935D02*
X13624232Y-13294459D01*
X13624232Y-13294459D02*
X13605184Y-13303982D01*
X13605184Y-13303982D02*
X13586137Y-13303982D01*
X13586137Y-13303982D02*
X13567089Y-13294459D01*
X13567089Y-13294459D02*
X13557565Y-13284935D01*
X13557565Y-13284935D02*
X13548042Y-13265887D01*
X13548042Y-13265887D02*
X13538518Y-13227792D01*
X13538518Y-13227792D02*
X13538518Y-13180173D01*
X13538518Y-13180173D02*
X13548042Y-13142078D01*
X13548042Y-13142078D02*
X13557565Y-13123030D01*
X13557565Y-13123030D02*
X13567089Y-13113506D01*
X13567089Y-13113506D02*
X13586137Y-13103982D01*
X13738518Y-13284935D02*
X13748042Y-13294459D01*
X13748042Y-13294459D02*
X13738518Y-13303982D01*
X13738518Y-13303982D02*
X13728994Y-13294459D01*
X13728994Y-13294459D02*
X13738518Y-13284935D01*
X13738518Y-13284935D02*
X13738518Y-13303982D01*
X13871851Y-13103982D02*
X13890899Y-13103982D01*
X13890899Y-13103982D02*
X13909946Y-13113506D01*
X13909946Y-13113506D02*
X13919470Y-13123030D01*
X13919470Y-13123030D02*
X13928994Y-13142078D01*
X13928994Y-13142078D02*
X13938518Y-13180173D01*
X13938518Y-13180173D02*
X13938518Y-13227792D01*
X13938518Y-13227792D02*
X13928994Y-13265887D01*
X13928994Y-13265887D02*
X13919470Y-13284935D01*
X13919470Y-13284935D02*
X13909946Y-13294459D01*
X13909946Y-13294459D02*
X13890899Y-13303982D01*
X13890899Y-13303982D02*
X13871851Y-13303982D01*
X13871851Y-13303982D02*
X13852803Y-13294459D01*
X13852803Y-13294459D02*
X13843280Y-13284935D01*
X13843280Y-13284935D02*
X13833756Y-13265887D01*
X13833756Y-13265887D02*
X13824232Y-13227792D01*
X13824232Y-13227792D02*
X13824232Y-13180173D01*
X13824232Y-13180173D02*
X13833756Y-13142078D01*
X13833756Y-13142078D02*
X13843280Y-13123030D01*
X13843280Y-13123030D02*
X13852803Y-13113506D01*
X13852803Y-13113506D02*
X13871851Y-13103982D01*
X14128994Y-13303982D02*
X14014708Y-13303982D01*
X14071851Y-13303982D02*
X14071851Y-13103982D01*
X14071851Y-13103982D02*
X14052803Y-13132554D01*
X14052803Y-13132554D02*
X14033756Y-13151601D01*
X14033756Y-13151601D02*
X14014708Y-13161125D01*
X14319470Y-13303982D02*
X14205184Y-13303982D01*
X14262327Y-13303982D02*
X14262327Y-13103982D01*
X14262327Y-13103982D02*
X14243280Y-13132554D01*
X14243280Y-13132554D02*
X14224232Y-13151601D01*
X14224232Y-13151601D02*
X14205184Y-13161125D01*
X14433756Y-13189697D02*
X14414708Y-13180173D01*
X14414708Y-13180173D02*
X14405184Y-13170649D01*
X14405184Y-13170649D02*
X14395661Y-13151601D01*
X14395661Y-13151601D02*
X14395661Y-13142078D01*
X14395661Y-13142078D02*
X14405184Y-13123030D01*
X14405184Y-13123030D02*
X14414708Y-13113506D01*
X14414708Y-13113506D02*
X14433756Y-13103982D01*
X14433756Y-13103982D02*
X14471851Y-13103982D01*
X14471851Y-13103982D02*
X14490899Y-13113506D01*
X14490899Y-13113506D02*
X14500423Y-13123030D01*
X14500423Y-13123030D02*
X14509946Y-13142078D01*
X14509946Y-13142078D02*
X14509946Y-13151601D01*
X14509946Y-13151601D02*
X14500423Y-13170649D01*
X14500423Y-13170649D02*
X14490899Y-13180173D01*
X14490899Y-13180173D02*
X14471851Y-13189697D01*
X14471851Y-13189697D02*
X14433756Y-13189697D01*
X14433756Y-13189697D02*
X14414708Y-13199221D01*
X14414708Y-13199221D02*
X14405184Y-13208744D01*
X14405184Y-13208744D02*
X14395661Y-13227792D01*
X14395661Y-13227792D02*
X14395661Y-13265887D01*
X14395661Y-13265887D02*
X14405184Y-13284935D01*
X14405184Y-13284935D02*
X14414708Y-13294459D01*
X14414708Y-13294459D02*
X14433756Y-13303982D01*
X14433756Y-13303982D02*
X14471851Y-13303982D01*
X14471851Y-13303982D02*
X14490899Y-13294459D01*
X14490899Y-13294459D02*
X14500423Y-13284935D01*
X14500423Y-13284935D02*
X14509946Y-13265887D01*
X14509946Y-13265887D02*
X14509946Y-13227792D01*
X14509946Y-13227792D02*
X14500423Y-13208744D01*
X14500423Y-13208744D02*
X14490899Y-13199221D01*
X14490899Y-13199221D02*
X14471851Y-13189697D01*
X14586137Y-13103982D02*
X14586137Y-13142078D01*
X14662327Y-13103982D02*
X14662327Y-13142078D01*
X14957566Y-13380173D02*
X14948042Y-13370649D01*
X14948042Y-13370649D02*
X14928994Y-13342078D01*
X14928994Y-13342078D02*
X14919470Y-13323030D01*
X14919470Y-13323030D02*
X14909946Y-13294459D01*
X14909946Y-13294459D02*
X14900423Y-13246840D01*
X14900423Y-13246840D02*
X14900423Y-13208744D01*
X14900423Y-13208744D02*
X14909946Y-13161125D01*
X14909946Y-13161125D02*
X14919470Y-13132554D01*
X14919470Y-13132554D02*
X14928994Y-13113506D01*
X14928994Y-13113506D02*
X14948042Y-13084935D01*
X14948042Y-13084935D02*
X14957566Y-13075411D01*
X15119470Y-13103982D02*
X15081375Y-13103982D01*
X15081375Y-13103982D02*
X15062327Y-13113506D01*
X15062327Y-13113506D02*
X15052804Y-13123030D01*
X15052804Y-13123030D02*
X15033756Y-13151601D01*
X15033756Y-13151601D02*
X15024232Y-13189697D01*
X15024232Y-13189697D02*
X15024232Y-13265887D01*
X15024232Y-13265887D02*
X15033756Y-13284935D01*
X15033756Y-13284935D02*
X15043280Y-13294459D01*
X15043280Y-13294459D02*
X15062327Y-13303982D01*
X15062327Y-13303982D02*
X15100423Y-13303982D01*
X15100423Y-13303982D02*
X15119470Y-13294459D01*
X15119470Y-13294459D02*
X15128994Y-13284935D01*
X15128994Y-13284935D02*
X15138518Y-13265887D01*
X15138518Y-13265887D02*
X15138518Y-13218268D01*
X15138518Y-13218268D02*
X15128994Y-13199221D01*
X15128994Y-13199221D02*
X15119470Y-13189697D01*
X15119470Y-13189697D02*
X15100423Y-13180173D01*
X15100423Y-13180173D02*
X15062327Y-13180173D01*
X15062327Y-13180173D02*
X15043280Y-13189697D01*
X15043280Y-13189697D02*
X15033756Y-13199221D01*
X15033756Y-13199221D02*
X15024232Y-13218268D01*
X15214708Y-13123030D02*
X15224232Y-13113506D01*
X15224232Y-13113506D02*
X15243280Y-13103982D01*
X15243280Y-13103982D02*
X15290899Y-13103982D01*
X15290899Y-13103982D02*
X15309946Y-13113506D01*
X15309946Y-13113506D02*
X15319470Y-13123030D01*
X15319470Y-13123030D02*
X15328994Y-13142078D01*
X15328994Y-13142078D02*
X15328994Y-13161125D01*
X15328994Y-13161125D02*
X15319470Y-13189697D01*
X15319470Y-13189697D02*
X15205185Y-13303982D01*
X15205185Y-13303982D02*
X15328994Y-13303982D01*
X15567089Y-13303982D02*
X15567089Y-13103982D01*
X15652804Y-13303982D02*
X15652804Y-13199221D01*
X15652804Y-13199221D02*
X15643280Y-13180173D01*
X15643280Y-13180173D02*
X15624232Y-13170649D01*
X15624232Y-13170649D02*
X15595661Y-13170649D01*
X15595661Y-13170649D02*
X15576613Y-13180173D01*
X15576613Y-13180173D02*
X15567089Y-13189697D01*
X15776613Y-13303982D02*
X15757566Y-13294459D01*
X15757566Y-13294459D02*
X15748042Y-13284935D01*
X15748042Y-13284935D02*
X15738518Y-13265887D01*
X15738518Y-13265887D02*
X15738518Y-13208744D01*
X15738518Y-13208744D02*
X15748042Y-13189697D01*
X15748042Y-13189697D02*
X15757566Y-13180173D01*
X15757566Y-13180173D02*
X15776613Y-13170649D01*
X15776613Y-13170649D02*
X15805185Y-13170649D01*
X15805185Y-13170649D02*
X15824232Y-13180173D01*
X15824232Y-13180173D02*
X15833756Y-13189697D01*
X15833756Y-13189697D02*
X15843280Y-13208744D01*
X15843280Y-13208744D02*
X15843280Y-13265887D01*
X15843280Y-13265887D02*
X15833756Y-13284935D01*
X15833756Y-13284935D02*
X15824232Y-13294459D01*
X15824232Y-13294459D02*
X15805185Y-13303982D01*
X15805185Y-13303982D02*
X15776613Y-13303982D01*
X15957566Y-13303982D02*
X15938518Y-13294459D01*
X15938518Y-13294459D02*
X15928994Y-13275411D01*
X15928994Y-13275411D02*
X15928994Y-13103982D01*
X16109947Y-13294459D02*
X16090899Y-13303982D01*
X16090899Y-13303982D02*
X16052804Y-13303982D01*
X16052804Y-13303982D02*
X16033756Y-13294459D01*
X16033756Y-13294459D02*
X16024232Y-13275411D01*
X16024232Y-13275411D02*
X16024232Y-13199221D01*
X16024232Y-13199221D02*
X16033756Y-13180173D01*
X16033756Y-13180173D02*
X16052804Y-13170649D01*
X16052804Y-13170649D02*
X16090899Y-13170649D01*
X16090899Y-13170649D02*
X16109947Y-13180173D01*
X16109947Y-13180173D02*
X16119470Y-13199221D01*
X16119470Y-13199221D02*
X16119470Y-13218268D01*
X16119470Y-13218268D02*
X16024232Y-13237316D01*
X16195661Y-13294459D02*
X16214708Y-13303982D01*
X16214708Y-13303982D02*
X16252804Y-13303982D01*
X16252804Y-13303982D02*
X16271851Y-13294459D01*
X16271851Y-13294459D02*
X16281375Y-13275411D01*
X16281375Y-13275411D02*
X16281375Y-13265887D01*
X16281375Y-13265887D02*
X16271851Y-13246840D01*
X16271851Y-13246840D02*
X16252804Y-13237316D01*
X16252804Y-13237316D02*
X16224232Y-13237316D01*
X16224232Y-13237316D02*
X16205185Y-13227792D01*
X16205185Y-13227792D02*
X16195661Y-13208744D01*
X16195661Y-13208744D02*
X16195661Y-13199221D01*
X16195661Y-13199221D02*
X16205185Y-13180173D01*
X16205185Y-13180173D02*
X16224232Y-13170649D01*
X16224232Y-13170649D02*
X16252804Y-13170649D01*
X16252804Y-13170649D02*
X16271851Y-13180173D01*
X16348042Y-13380173D02*
X16357566Y-13370649D01*
X16357566Y-13370649D02*
X16376613Y-13342078D01*
X16376613Y-13342078D02*
X16386137Y-13323030D01*
X16386137Y-13323030D02*
X16395661Y-13294459D01*
X16395661Y-13294459D02*
X16405185Y-13246840D01*
X16405185Y-13246840D02*
X16405185Y-13208744D01*
X16405185Y-13208744D02*
X16395661Y-13161125D01*
X16395661Y-13161125D02*
X16386137Y-13132554D01*
X16386137Y-13132554D02*
X16376613Y-13113506D01*
X16376613Y-13113506D02*
X16357566Y-13084935D01*
X16357566Y-13084935D02*
X16348042Y-13075411D01*
D12*
X11382503Y-13476499D02*
G75*
G02*
X11322503Y-13476499I-30000J0D01*
G01*
X11322503Y-13476499D02*
G75*
G02*
X11382503Y-13476499I30000J0D01*
G01*
D11*
X11681375Y-13367982D02*
X11700422Y-13367982D01*
X11700422Y-13367982D02*
X11719470Y-13377506D01*
X11719470Y-13377506D02*
X11728994Y-13387030D01*
X11728994Y-13387030D02*
X11738518Y-13406078D01*
X11738518Y-13406078D02*
X11748041Y-13444173D01*
X11748041Y-13444173D02*
X11748041Y-13491792D01*
X11748041Y-13491792D02*
X11738518Y-13529887D01*
X11738518Y-13529887D02*
X11728994Y-13548935D01*
X11728994Y-13548935D02*
X11719470Y-13558459D01*
X11719470Y-13558459D02*
X11700422Y-13567982D01*
X11700422Y-13567982D02*
X11681375Y-13567982D01*
X11681375Y-13567982D02*
X11662327Y-13558459D01*
X11662327Y-13558459D02*
X11652803Y-13548935D01*
X11652803Y-13548935D02*
X11643279Y-13529887D01*
X11643279Y-13529887D02*
X11633756Y-13491792D01*
X11633756Y-13491792D02*
X11633756Y-13444173D01*
X11633756Y-13444173D02*
X11643279Y-13406078D01*
X11643279Y-13406078D02*
X11652803Y-13387030D01*
X11652803Y-13387030D02*
X11662327Y-13377506D01*
X11662327Y-13377506D02*
X11681375Y-13367982D01*
X11833756Y-13548935D02*
X11843279Y-13558459D01*
X11843279Y-13558459D02*
X11833756Y-13567982D01*
X11833756Y-13567982D02*
X11824232Y-13558459D01*
X11824232Y-13558459D02*
X11833756Y-13548935D01*
X11833756Y-13548935D02*
X11833756Y-13567982D01*
X12014708Y-13367982D02*
X11976613Y-13367982D01*
X11976613Y-13367982D02*
X11957565Y-13377506D01*
X11957565Y-13377506D02*
X11948041Y-13387030D01*
X11948041Y-13387030D02*
X11928994Y-13415601D01*
X11928994Y-13415601D02*
X11919470Y-13453697D01*
X11919470Y-13453697D02*
X11919470Y-13529887D01*
X11919470Y-13529887D02*
X11928994Y-13548935D01*
X11928994Y-13548935D02*
X11938518Y-13558459D01*
X11938518Y-13558459D02*
X11957565Y-13567982D01*
X11957565Y-13567982D02*
X11995660Y-13567982D01*
X11995660Y-13567982D02*
X12014708Y-13558459D01*
X12014708Y-13558459D02*
X12024232Y-13548935D01*
X12024232Y-13548935D02*
X12033756Y-13529887D01*
X12033756Y-13529887D02*
X12033756Y-13482268D01*
X12033756Y-13482268D02*
X12024232Y-13463221D01*
X12024232Y-13463221D02*
X12014708Y-13453697D01*
X12014708Y-13453697D02*
X11995660Y-13444173D01*
X11995660Y-13444173D02*
X11957565Y-13444173D01*
X11957565Y-13444173D02*
X11938518Y-13453697D01*
X11938518Y-13453697D02*
X11928994Y-13463221D01*
X11928994Y-13463221D02*
X11919470Y-13482268D01*
X12157565Y-13367982D02*
X12176613Y-13367982D01*
X12176613Y-13367982D02*
X12195660Y-13377506D01*
X12195660Y-13377506D02*
X12205184Y-13387030D01*
X12205184Y-13387030D02*
X12214708Y-13406078D01*
X12214708Y-13406078D02*
X12224232Y-13444173D01*
X12224232Y-13444173D02*
X12224232Y-13491792D01*
X12224232Y-13491792D02*
X12214708Y-13529887D01*
X12214708Y-13529887D02*
X12205184Y-13548935D01*
X12205184Y-13548935D02*
X12195660Y-13558459D01*
X12195660Y-13558459D02*
X12176613Y-13567982D01*
X12176613Y-13567982D02*
X12157565Y-13567982D01*
X12157565Y-13567982D02*
X12138518Y-13558459D01*
X12138518Y-13558459D02*
X12128994Y-13548935D01*
X12128994Y-13548935D02*
X12119470Y-13529887D01*
X12119470Y-13529887D02*
X12109946Y-13491792D01*
X12109946Y-13491792D02*
X12109946Y-13444173D01*
X12109946Y-13444173D02*
X12119470Y-13406078D01*
X12119470Y-13406078D02*
X12128994Y-13387030D01*
X12128994Y-13387030D02*
X12138518Y-13377506D01*
X12138518Y-13377506D02*
X12157565Y-13367982D01*
X12348041Y-13367982D02*
X12367089Y-13367982D01*
X12367089Y-13367982D02*
X12386137Y-13377506D01*
X12386137Y-13377506D02*
X12395660Y-13387030D01*
X12395660Y-13387030D02*
X12405184Y-13406078D01*
X12405184Y-13406078D02*
X12414708Y-13444173D01*
X12414708Y-13444173D02*
X12414708Y-13491792D01*
X12414708Y-13491792D02*
X12405184Y-13529887D01*
X12405184Y-13529887D02*
X12395660Y-13548935D01*
X12395660Y-13548935D02*
X12386137Y-13558459D01*
X12386137Y-13558459D02*
X12367089Y-13567982D01*
X12367089Y-13567982D02*
X12348041Y-13567982D01*
X12348041Y-13567982D02*
X12328994Y-13558459D01*
X12328994Y-13558459D02*
X12319470Y-13548935D01*
X12319470Y-13548935D02*
X12309946Y-13529887D01*
X12309946Y-13529887D02*
X12300422Y-13491792D01*
X12300422Y-13491792D02*
X12300422Y-13444173D01*
X12300422Y-13444173D02*
X12309946Y-13406078D01*
X12309946Y-13406078D02*
X12319470Y-13387030D01*
X12319470Y-13387030D02*
X12328994Y-13377506D01*
X12328994Y-13377506D02*
X12348041Y-13367982D01*
X12500422Y-13567982D02*
X12500422Y-13434649D01*
X12500422Y-13453697D02*
X12509946Y-13444173D01*
X12509946Y-13444173D02*
X12528994Y-13434649D01*
X12528994Y-13434649D02*
X12557565Y-13434649D01*
X12557565Y-13434649D02*
X12576613Y-13444173D01*
X12576613Y-13444173D02*
X12586137Y-13463221D01*
X12586137Y-13463221D02*
X12586137Y-13567982D01*
X12586137Y-13463221D02*
X12595660Y-13444173D01*
X12595660Y-13444173D02*
X12614708Y-13434649D01*
X12614708Y-13434649D02*
X12643279Y-13434649D01*
X12643279Y-13434649D02*
X12662327Y-13444173D01*
X12662327Y-13444173D02*
X12671851Y-13463221D01*
X12671851Y-13463221D02*
X12671851Y-13567982D01*
X12767089Y-13567982D02*
X12767089Y-13434649D01*
X12767089Y-13453697D02*
X12776613Y-13444173D01*
X12776613Y-13444173D02*
X12795660Y-13434649D01*
X12795660Y-13434649D02*
X12824232Y-13434649D01*
X12824232Y-13434649D02*
X12843280Y-13444173D01*
X12843280Y-13444173D02*
X12852803Y-13463221D01*
X12852803Y-13463221D02*
X12852803Y-13567982D01*
X12852803Y-13463221D02*
X12862327Y-13444173D01*
X12862327Y-13444173D02*
X12881375Y-13434649D01*
X12881375Y-13434649D02*
X12909946Y-13434649D01*
X12909946Y-13434649D02*
X12928994Y-13444173D01*
X12928994Y-13444173D02*
X12938518Y-13463221D01*
X12938518Y-13463221D02*
X12938518Y-13567982D01*
X13328994Y-13358459D02*
X13157565Y-13615601D01*
X13586137Y-13367982D02*
X13605184Y-13367982D01*
X13605184Y-13367982D02*
X13624232Y-13377506D01*
X13624232Y-13377506D02*
X13633756Y-13387030D01*
X13633756Y-13387030D02*
X13643280Y-13406078D01*
X13643280Y-13406078D02*
X13652803Y-13444173D01*
X13652803Y-13444173D02*
X13652803Y-13491792D01*
X13652803Y-13491792D02*
X13643280Y-13529887D01*
X13643280Y-13529887D02*
X13633756Y-13548935D01*
X13633756Y-13548935D02*
X13624232Y-13558459D01*
X13624232Y-13558459D02*
X13605184Y-13567982D01*
X13605184Y-13567982D02*
X13586137Y-13567982D01*
X13586137Y-13567982D02*
X13567089Y-13558459D01*
X13567089Y-13558459D02*
X13557565Y-13548935D01*
X13557565Y-13548935D02*
X13548042Y-13529887D01*
X13548042Y-13529887D02*
X13538518Y-13491792D01*
X13538518Y-13491792D02*
X13538518Y-13444173D01*
X13538518Y-13444173D02*
X13548042Y-13406078D01*
X13548042Y-13406078D02*
X13557565Y-13387030D01*
X13557565Y-13387030D02*
X13567089Y-13377506D01*
X13567089Y-13377506D02*
X13586137Y-13367982D01*
X13738518Y-13548935D02*
X13748042Y-13558459D01*
X13748042Y-13558459D02*
X13738518Y-13567982D01*
X13738518Y-13567982D02*
X13728994Y-13558459D01*
X13728994Y-13558459D02*
X13738518Y-13548935D01*
X13738518Y-13548935D02*
X13738518Y-13567982D01*
X13871851Y-13367982D02*
X13890899Y-13367982D01*
X13890899Y-13367982D02*
X13909946Y-13377506D01*
X13909946Y-13377506D02*
X13919470Y-13387030D01*
X13919470Y-13387030D02*
X13928994Y-13406078D01*
X13928994Y-13406078D02*
X13938518Y-13444173D01*
X13938518Y-13444173D02*
X13938518Y-13491792D01*
X13938518Y-13491792D02*
X13928994Y-13529887D01*
X13928994Y-13529887D02*
X13919470Y-13548935D01*
X13919470Y-13548935D02*
X13909946Y-13558459D01*
X13909946Y-13558459D02*
X13890899Y-13567982D01*
X13890899Y-13567982D02*
X13871851Y-13567982D01*
X13871851Y-13567982D02*
X13852803Y-13558459D01*
X13852803Y-13558459D02*
X13843280Y-13548935D01*
X13843280Y-13548935D02*
X13833756Y-13529887D01*
X13833756Y-13529887D02*
X13824232Y-13491792D01*
X13824232Y-13491792D02*
X13824232Y-13444173D01*
X13824232Y-13444173D02*
X13833756Y-13406078D01*
X13833756Y-13406078D02*
X13843280Y-13387030D01*
X13843280Y-13387030D02*
X13852803Y-13377506D01*
X13852803Y-13377506D02*
X13871851Y-13367982D01*
X14014708Y-13387030D02*
X14024232Y-13377506D01*
X14024232Y-13377506D02*
X14043280Y-13367982D01*
X14043280Y-13367982D02*
X14090899Y-13367982D01*
X14090899Y-13367982D02*
X14109946Y-13377506D01*
X14109946Y-13377506D02*
X14119470Y-13387030D01*
X14119470Y-13387030D02*
X14128994Y-13406078D01*
X14128994Y-13406078D02*
X14128994Y-13425125D01*
X14128994Y-13425125D02*
X14119470Y-13453697D01*
X14119470Y-13453697D02*
X14005184Y-13567982D01*
X14005184Y-13567982D02*
X14128994Y-13567982D01*
X14195661Y-13367982D02*
X14319470Y-13367982D01*
X14319470Y-13367982D02*
X14252803Y-13444173D01*
X14252803Y-13444173D02*
X14281375Y-13444173D01*
X14281375Y-13444173D02*
X14300423Y-13453697D01*
X14300423Y-13453697D02*
X14309946Y-13463221D01*
X14309946Y-13463221D02*
X14319470Y-13482268D01*
X14319470Y-13482268D02*
X14319470Y-13529887D01*
X14319470Y-13529887D02*
X14309946Y-13548935D01*
X14309946Y-13548935D02*
X14300423Y-13558459D01*
X14300423Y-13558459D02*
X14281375Y-13567982D01*
X14281375Y-13567982D02*
X14224232Y-13567982D01*
X14224232Y-13567982D02*
X14205184Y-13558459D01*
X14205184Y-13558459D02*
X14195661Y-13548935D01*
X14490899Y-13367982D02*
X14452803Y-13367982D01*
X14452803Y-13367982D02*
X14433756Y-13377506D01*
X14433756Y-13377506D02*
X14424232Y-13387030D01*
X14424232Y-13387030D02*
X14405184Y-13415601D01*
X14405184Y-13415601D02*
X14395661Y-13453697D01*
X14395661Y-13453697D02*
X14395661Y-13529887D01*
X14395661Y-13529887D02*
X14405184Y-13548935D01*
X14405184Y-13548935D02*
X14414708Y-13558459D01*
X14414708Y-13558459D02*
X14433756Y-13567982D01*
X14433756Y-13567982D02*
X14471851Y-13567982D01*
X14471851Y-13567982D02*
X14490899Y-13558459D01*
X14490899Y-13558459D02*
X14500423Y-13548935D01*
X14500423Y-13548935D02*
X14509946Y-13529887D01*
X14509946Y-13529887D02*
X14509946Y-13482268D01*
X14509946Y-13482268D02*
X14500423Y-13463221D01*
X14500423Y-13463221D02*
X14490899Y-13453697D01*
X14490899Y-13453697D02*
X14471851Y-13444173D01*
X14471851Y-13444173D02*
X14433756Y-13444173D01*
X14433756Y-13444173D02*
X14414708Y-13453697D01*
X14414708Y-13453697D02*
X14405184Y-13463221D01*
X14405184Y-13463221D02*
X14395661Y-13482268D01*
X14586137Y-13367982D02*
X14586137Y-13406078D01*
X14662327Y-13367982D02*
X14662327Y-13406078D01*
X14957566Y-13644173D02*
X14948042Y-13634649D01*
X14948042Y-13634649D02*
X14928994Y-13606078D01*
X14928994Y-13606078D02*
X14919470Y-13587030D01*
X14919470Y-13587030D02*
X14909946Y-13558459D01*
X14909946Y-13558459D02*
X14900423Y-13510840D01*
X14900423Y-13510840D02*
X14900423Y-13472744D01*
X14900423Y-13472744D02*
X14909946Y-13425125D01*
X14909946Y-13425125D02*
X14919470Y-13396554D01*
X14919470Y-13396554D02*
X14928994Y-13377506D01*
X14928994Y-13377506D02*
X14948042Y-13348935D01*
X14948042Y-13348935D02*
X14957566Y-13339411D01*
X15071851Y-13367982D02*
X15090899Y-13367982D01*
X15090899Y-13367982D02*
X15109946Y-13377506D01*
X15109946Y-13377506D02*
X15119470Y-13387030D01*
X15119470Y-13387030D02*
X15128994Y-13406078D01*
X15128994Y-13406078D02*
X15138518Y-13444173D01*
X15138518Y-13444173D02*
X15138518Y-13491792D01*
X15138518Y-13491792D02*
X15128994Y-13529887D01*
X15128994Y-13529887D02*
X15119470Y-13548935D01*
X15119470Y-13548935D02*
X15109946Y-13558459D01*
X15109946Y-13558459D02*
X15090899Y-13567982D01*
X15090899Y-13567982D02*
X15071851Y-13567982D01*
X15071851Y-13567982D02*
X15052804Y-13558459D01*
X15052804Y-13558459D02*
X15043280Y-13548935D01*
X15043280Y-13548935D02*
X15033756Y-13529887D01*
X15033756Y-13529887D02*
X15024232Y-13491792D01*
X15024232Y-13491792D02*
X15024232Y-13444173D01*
X15024232Y-13444173D02*
X15033756Y-13406078D01*
X15033756Y-13406078D02*
X15043280Y-13387030D01*
X15043280Y-13387030D02*
X15052804Y-13377506D01*
X15052804Y-13377506D02*
X15071851Y-13367982D01*
X15376613Y-13567982D02*
X15376613Y-13367982D01*
X15462327Y-13567982D02*
X15462327Y-13463221D01*
X15462327Y-13463221D02*
X15452804Y-13444173D01*
X15452804Y-13444173D02*
X15433756Y-13434649D01*
X15433756Y-13434649D02*
X15405185Y-13434649D01*
X15405185Y-13434649D02*
X15386137Y-13444173D01*
X15386137Y-13444173D02*
X15376613Y-13453697D01*
X15586137Y-13567982D02*
X15567089Y-13558459D01*
X15567089Y-13558459D02*
X15557566Y-13548935D01*
X15557566Y-13548935D02*
X15548042Y-13529887D01*
X15548042Y-13529887D02*
X15548042Y-13472744D01*
X15548042Y-13472744D02*
X15557566Y-13453697D01*
X15557566Y-13453697D02*
X15567089Y-13444173D01*
X15567089Y-13444173D02*
X15586137Y-13434649D01*
X15586137Y-13434649D02*
X15614708Y-13434649D01*
X15614708Y-13434649D02*
X15633756Y-13444173D01*
X15633756Y-13444173D02*
X15643280Y-13453697D01*
X15643280Y-13453697D02*
X15652804Y-13472744D01*
X15652804Y-13472744D02*
X15652804Y-13529887D01*
X15652804Y-13529887D02*
X15643280Y-13548935D01*
X15643280Y-13548935D02*
X15633756Y-13558459D01*
X15633756Y-13558459D02*
X15614708Y-13567982D01*
X15614708Y-13567982D02*
X15586137Y-13567982D01*
X15767089Y-13567982D02*
X15748042Y-13558459D01*
X15748042Y-13558459D02*
X15738518Y-13539411D01*
X15738518Y-13539411D02*
X15738518Y-13367982D01*
X15919470Y-13558459D02*
X15900423Y-13567982D01*
X15900423Y-13567982D02*
X15862327Y-13567982D01*
X15862327Y-13567982D02*
X15843280Y-13558459D01*
X15843280Y-13558459D02*
X15833756Y-13539411D01*
X15833756Y-13539411D02*
X15833756Y-13463221D01*
X15833756Y-13463221D02*
X15843280Y-13444173D01*
X15843280Y-13444173D02*
X15862327Y-13434649D01*
X15862327Y-13434649D02*
X15900423Y-13434649D01*
X15900423Y-13434649D02*
X15919470Y-13444173D01*
X15919470Y-13444173D02*
X15928994Y-13463221D01*
X15928994Y-13463221D02*
X15928994Y-13482268D01*
X15928994Y-13482268D02*
X15833756Y-13501316D01*
X16005185Y-13558459D02*
X16024232Y-13567982D01*
X16024232Y-13567982D02*
X16062327Y-13567982D01*
X16062327Y-13567982D02*
X16081375Y-13558459D01*
X16081375Y-13558459D02*
X16090899Y-13539411D01*
X16090899Y-13539411D02*
X16090899Y-13529887D01*
X16090899Y-13529887D02*
X16081375Y-13510840D01*
X16081375Y-13510840D02*
X16062327Y-13501316D01*
X16062327Y-13501316D02*
X16033756Y-13501316D01*
X16033756Y-13501316D02*
X16014708Y-13491792D01*
X16014708Y-13491792D02*
X16005185Y-13472744D01*
X16005185Y-13472744D02*
X16005185Y-13463221D01*
X16005185Y-13463221D02*
X16014708Y-13444173D01*
X16014708Y-13444173D02*
X16033756Y-13434649D01*
X16033756Y-13434649D02*
X16062327Y-13434649D01*
X16062327Y-13434649D02*
X16081375Y-13444173D01*
X16328994Y-13491792D02*
X16481375Y-13491792D01*
X16405185Y-13567982D02*
X16405185Y-13415601D01*
X16814709Y-13434649D02*
X16814709Y-13567982D01*
X16767089Y-13358459D02*
X16719470Y-13501316D01*
X16719470Y-13501316D02*
X16843280Y-13501316D01*
X17062328Y-13558459D02*
X17081375Y-13567982D01*
X17081375Y-13567982D02*
X17119471Y-13567982D01*
X17119471Y-13567982D02*
X17138518Y-13558459D01*
X17138518Y-13558459D02*
X17148042Y-13539411D01*
X17148042Y-13539411D02*
X17148042Y-13529887D01*
X17148042Y-13529887D02*
X17138518Y-13510840D01*
X17138518Y-13510840D02*
X17119471Y-13501316D01*
X17119471Y-13501316D02*
X17090899Y-13501316D01*
X17090899Y-13501316D02*
X17071852Y-13491792D01*
X17071852Y-13491792D02*
X17062328Y-13472744D01*
X17062328Y-13472744D02*
X17062328Y-13463221D01*
X17062328Y-13463221D02*
X17071852Y-13444173D01*
X17071852Y-13444173D02*
X17090899Y-13434649D01*
X17090899Y-13434649D02*
X17119471Y-13434649D01*
X17119471Y-13434649D02*
X17138518Y-13444173D01*
X17262328Y-13567982D02*
X17243280Y-13558459D01*
X17243280Y-13558459D02*
X17233756Y-13539411D01*
X17233756Y-13539411D02*
X17233756Y-13367982D01*
X17367090Y-13567982D02*
X17348042Y-13558459D01*
X17348042Y-13558459D02*
X17338518Y-13548935D01*
X17338518Y-13548935D02*
X17328994Y-13529887D01*
X17328994Y-13529887D02*
X17328994Y-13472744D01*
X17328994Y-13472744D02*
X17338518Y-13453697D01*
X17338518Y-13453697D02*
X17348042Y-13444173D01*
X17348042Y-13444173D02*
X17367090Y-13434649D01*
X17367090Y-13434649D02*
X17395661Y-13434649D01*
X17395661Y-13434649D02*
X17414709Y-13444173D01*
X17414709Y-13444173D02*
X17424233Y-13453697D01*
X17424233Y-13453697D02*
X17433756Y-13472744D01*
X17433756Y-13472744D02*
X17433756Y-13529887D01*
X17433756Y-13529887D02*
X17424233Y-13548935D01*
X17424233Y-13548935D02*
X17414709Y-13558459D01*
X17414709Y-13558459D02*
X17395661Y-13567982D01*
X17395661Y-13567982D02*
X17367090Y-13567982D01*
X17490899Y-13434649D02*
X17567090Y-13434649D01*
X17519471Y-13367982D02*
X17519471Y-13539411D01*
X17519471Y-13539411D02*
X17528994Y-13558459D01*
X17528994Y-13558459D02*
X17548042Y-13567982D01*
X17548042Y-13567982D02*
X17567090Y-13567982D01*
X17624233Y-13558459D02*
X17643280Y-13567982D01*
X17643280Y-13567982D02*
X17681375Y-13567982D01*
X17681375Y-13567982D02*
X17700423Y-13558459D01*
X17700423Y-13558459D02*
X17709947Y-13539411D01*
X17709947Y-13539411D02*
X17709947Y-13529887D01*
X17709947Y-13529887D02*
X17700423Y-13510840D01*
X17700423Y-13510840D02*
X17681375Y-13501316D01*
X17681375Y-13501316D02*
X17652804Y-13501316D01*
X17652804Y-13501316D02*
X17633756Y-13491792D01*
X17633756Y-13491792D02*
X17624233Y-13472744D01*
X17624233Y-13472744D02*
X17624233Y-13463221D01*
X17624233Y-13463221D02*
X17633756Y-13444173D01*
X17633756Y-13444173D02*
X17652804Y-13434649D01*
X17652804Y-13434649D02*
X17681375Y-13434649D01*
X17681375Y-13434649D02*
X17700423Y-13444173D01*
X17776614Y-13644173D02*
X17786137Y-13634649D01*
X17786137Y-13634649D02*
X17805185Y-13606078D01*
X17805185Y-13606078D02*
X17814709Y-13587030D01*
X17814709Y-13587030D02*
X17824233Y-13558459D01*
X17824233Y-13558459D02*
X17833756Y-13510840D01*
X17833756Y-13510840D02*
X17833756Y-13472744D01*
X17833756Y-13472744D02*
X17824233Y-13425125D01*
X17824233Y-13425125D02*
X17814709Y-13396554D01*
X17814709Y-13396554D02*
X17805185Y-13377506D01*
X17805185Y-13377506D02*
X17786137Y-13348935D01*
X17786137Y-13348935D02*
X17776614Y-13339411D01*
M02*
