G04 #@! TF.GenerationSoftware,KiCad,Pcbnew,9.0.5*
G04 #@! TF.CreationDate,2025-11-30T01:11:54+01:00*
G04 #@! TF.ProjectId,xmasCrystalBall,786d6173-4372-4797-9374-616c42616c6c,rev?*
G04 #@! TF.SameCoordinates,Original*
G04 #@! TF.FileFunction,Legend,Top*
G04 #@! TF.FilePolarity,Positive*
%FSLAX46Y46*%
G04 Gerber Fmt 4.6, Leading zero omitted, Abs format (unit mm)*
G04 Created by KiCad (PCBNEW 9.0.5) date 2025-11-30 01:11:54*
%MOMM*%
%LPD*%
G01*
G04 APERTURE LIST*
G04 Aperture macros list*
%AMRotRect*
0 Rectangle, with rotation*
0 The origin of the aperture is its center*
0 $1 length*
0 $2 width*
0 $3 Rotation angle, in degrees counterclockwise*
0 Add horizontal line*
21,1,$1,$2,0,0,$3*%
G04 Aperture macros list end*
%ADD10C,0.141022*%
%ADD11C,0.500000*%
%ADD12C,0.000000*%
%ADD13C,0.100000*%
%ADD14C,0.200000*%
%ADD15RotRect,0.700000X0.700000X290.000000*%
%ADD16R,0.700000X0.700000*%
%ADD17RotRect,0.700000X0.700000X300.000000*%
%ADD18RotRect,0.700000X0.700000X330.000000*%
%ADD19RotRect,0.700000X0.700000X240.000000*%
%ADD20RotRect,0.700000X0.700000X220.000000*%
%ADD21RotRect,0.700000X0.700000X140.000000*%
%ADD22RotRect,0.700000X0.700000X60.000000*%
%ADD23C,0.100000*%
%ADD24O,1.200000X2.000000*%
%ADD25O,1.200000X2.300000*%
G04 APERTURE END LIST*
D10*
X130195603Y-95762553D02*
X130590383Y-95424167D01*
X130581786Y-96568812D02*
X130598984Y-96568812D01*
X131266396Y-95584021D02*
X131177971Y-95093408D01*
X129543032Y-94592228D02*
X130009380Y-94427472D01*
D11*
X172850000Y-95700000D02*
G75*
G02*
X114850000Y-95700000I-29000000J0D01*
G01*
X114850000Y-95700000D02*
G75*
G02*
X172850000Y-95700000I29000000J0D01*
G01*
D10*
X131513621Y-94220571D02*
X131700004Y-93512897D01*
X129019631Y-95669193D02*
X130581819Y-94754339D01*
X128950000Y-95100000D02*
X129658382Y-95288709D01*
X130048069Y-96353873D02*
X130590387Y-95823817D01*
D12*
G36*
X143950000Y-111343542D02*
G01*
X141926855Y-111343542D01*
X141926855Y-106576572D01*
X139502895Y-106886415D01*
X136922273Y-107108687D01*
X134342183Y-107257097D01*
X131919820Y-107345357D01*
X128177054Y-107396271D01*
X126951531Y-107371114D01*
X127179693Y-107287878D01*
X127616742Y-107064574D01*
X128989737Y-106275656D01*
X130814982Y-105160143D01*
X132836945Y-103873815D01*
X134800096Y-102572455D01*
X136448900Y-101411843D01*
X137075569Y-100933000D01*
X137527827Y-100547762D01*
X137773733Y-100275602D01*
X137809321Y-100188011D01*
X137781344Y-100135993D01*
X136632923Y-100348304D01*
X135282007Y-100561640D01*
X132504046Y-100944085D01*
X130363129Y-101200971D01*
X130523497Y-101160416D01*
X130720035Y-101074718D01*
X131210100Y-100780485D01*
X131810284Y-100343445D01*
X132497545Y-99788772D01*
X133248843Y-99141642D01*
X134041137Y-98427226D01*
X135656554Y-96897238D01*
X137159470Y-95400198D01*
X138365560Y-94137501D01*
X138799695Y-93656965D01*
X139090501Y-93310536D01*
X139214939Y-93123389D01*
X139207569Y-93097412D01*
X139149967Y-93120696D01*
X138934012Y-93226653D01*
X138631007Y-93346526D01*
X137824751Y-93615213D01*
X136852998Y-93901139D01*
X135837546Y-94178690D01*
X134162739Y-94606200D01*
X133774719Y-94692815D01*
X133864389Y-94652666D01*
X133986742Y-94572099D01*
X134319836Y-94300779D01*
X134754679Y-93900993D01*
X135271949Y-93394878D01*
X136476487Y-92152211D01*
X137778880Y-90749877D01*
X139024557Y-89364976D01*
X140058946Y-88174607D01*
X140727478Y-87355868D01*
X140876244Y-87141204D01*
X140895799Y-87092233D01*
X140875582Y-87085860D01*
X140106676Y-87358766D01*
X138859871Y-87786830D01*
X137743227Y-88164465D01*
X137364805Y-88286086D01*
X137459463Y-88206734D01*
X137640442Y-88011008D01*
X137898301Y-87706220D01*
X138223597Y-87299683D01*
X138606886Y-86798707D01*
X139038725Y-86210604D01*
X139509673Y-85542685D01*
X140010286Y-84802263D01*
X140531121Y-83996649D01*
X141062736Y-83133154D01*
X141595688Y-82219091D01*
X142120533Y-81261770D01*
X142627830Y-80268504D01*
X143108135Y-79246603D01*
X143335215Y-78727200D01*
X143552006Y-78203381D01*
X143757328Y-77676058D01*
X143950000Y-77146147D01*
X143950000Y-111343542D01*
G37*
D10*
X129021932Y-93854916D02*
X130581819Y-94754339D01*
X129667149Y-94220572D02*
X129480765Y-93512897D01*
X129534976Y-94928131D02*
X130002799Y-95093408D01*
X130598984Y-92960689D02*
X130598984Y-96568812D01*
X128956904Y-94423080D02*
X129667149Y-94220572D01*
X132223866Y-94423079D02*
X131513621Y-94220571D01*
X130590384Y-94099246D02*
X130968659Y-93770438D01*
X130590386Y-93698967D02*
X131118927Y-93182507D01*
X131132699Y-96353874D02*
X130590387Y-95823817D01*
X129476249Y-96017241D02*
X129658382Y-95288709D01*
X131171391Y-94427472D02*
X131268263Y-93943110D01*
X131637737Y-94592228D02*
X131171391Y-94427472D01*
X130598984Y-92960689D02*
X130581786Y-92960689D01*
X132161139Y-95669191D02*
X130598953Y-94754338D01*
X131645793Y-94928130D02*
X131177971Y-95093408D01*
X130581786Y-92960689D02*
X130581786Y-96568812D01*
X131704521Y-96017241D02*
X131522387Y-95288708D01*
X130009380Y-94427472D02*
X129912505Y-93943110D01*
X132158837Y-93854915D02*
X130598953Y-94754338D01*
X130985168Y-95762553D02*
X130590383Y-95424167D01*
X130590384Y-94099246D02*
X130212110Y-93770440D01*
X129914373Y-95584022D02*
X130002799Y-95093408D01*
X130590386Y-93698967D02*
X130061841Y-93182506D01*
X132230770Y-95099999D02*
X131522387Y-95288708D01*
D12*
G36*
X144142672Y-77676058D02*
G01*
X144347994Y-78203381D01*
X144564785Y-78727200D01*
X144791865Y-79246603D01*
X145272170Y-80268504D01*
X145779467Y-81261770D01*
X146304313Y-82219091D01*
X146837265Y-83133154D01*
X147368880Y-83996649D01*
X147889715Y-84802263D01*
X148390328Y-85542685D01*
X148861276Y-86210604D01*
X149293116Y-86798707D01*
X149676405Y-87299683D01*
X150001700Y-87706220D01*
X150259559Y-88011008D01*
X150440538Y-88206734D01*
X150535196Y-88286086D01*
X150156774Y-88164465D01*
X149040130Y-87786830D01*
X147793325Y-87358766D01*
X147024419Y-87085860D01*
X147004202Y-87092233D01*
X147023756Y-87141204D01*
X147172523Y-87355868D01*
X147841054Y-88174607D01*
X148875444Y-89364976D01*
X150121121Y-90749877D01*
X151423514Y-92152211D01*
X152628052Y-93394878D01*
X153145323Y-93900993D01*
X153580166Y-94300779D01*
X153913260Y-94572099D01*
X154035613Y-94652666D01*
X154125283Y-94692815D01*
X153737263Y-94606200D01*
X152062456Y-94178690D01*
X151047004Y-93901139D01*
X150075251Y-93615213D01*
X149268995Y-93346526D01*
X148965991Y-93226653D01*
X148750036Y-93120696D01*
X148692433Y-93097412D01*
X148685063Y-93123389D01*
X148809500Y-93310536D01*
X149100305Y-93656965D01*
X149534439Y-94137501D01*
X150740530Y-95400198D01*
X152243451Y-96897238D01*
X153858879Y-98427226D01*
X154651183Y-99141642D01*
X155402493Y-99788772D01*
X156089769Y-100343445D01*
X156689970Y-100780485D01*
X157180057Y-101074718D01*
X157376607Y-101160416D01*
X157536989Y-101200971D01*
X155395955Y-100944085D01*
X152617991Y-100561640D01*
X151267077Y-100348304D01*
X150118657Y-100135993D01*
X150090680Y-100188011D01*
X150126270Y-100275602D01*
X150372179Y-100547762D01*
X150824442Y-100933000D01*
X151451118Y-101411843D01*
X153099941Y-102572455D01*
X155063113Y-103873815D01*
X157085097Y-105160143D01*
X158910360Y-106275656D01*
X160283366Y-107064574D01*
X160720418Y-107287878D01*
X160948580Y-107371114D01*
X159723037Y-107396271D01*
X155980233Y-107345357D01*
X153557851Y-107257097D01*
X150977744Y-107108687D01*
X148397111Y-106886415D01*
X145973146Y-106576572D01*
X145973146Y-111343542D01*
X143950000Y-111343542D01*
X143950000Y-77146147D01*
X144142672Y-77676058D01*
G37*
D13*
X149934086Y-96308358D02*
X150686530Y-98375682D01*
X150686530Y-98375682D02*
X152565914Y-97691642D01*
X151813470Y-95624318D02*
X149934086Y-96308358D01*
X151988626Y-95666984D02*
X152048394Y-95538813D01*
X152048394Y-95538813D02*
X152116798Y-95726752D01*
X152116798Y-95726752D02*
X151988626Y-95666984D01*
X152565914Y-97691642D02*
X151813470Y-95624318D01*
D14*
X151764225Y-96529981D02*
G75*
G02*
X151564225Y-96529981I-100000J0D01*
G01*
X151564225Y-96529981D02*
G75*
G02*
X151764225Y-96529981I100000J0D01*
G01*
D13*
X148117413Y-89368814D02*
X148317413Y-89368814D01*
X148117413Y-89618814D02*
X148117413Y-91618814D01*
X148117413Y-91618814D02*
X150317413Y-91618814D01*
X148217413Y-89468814D02*
X148117413Y-89368814D01*
X148317413Y-89368814D02*
X148217413Y-89468814D01*
X150317413Y-89618814D02*
X148117413Y-89618814D01*
X150317413Y-91618814D02*
X150317413Y-89618814D01*
D14*
X149017413Y-90068814D02*
G75*
G02*
X148817413Y-90068814I-100000J0D01*
G01*
X148817413Y-90068814D02*
G75*
G02*
X149017413Y-90068814I100000J0D01*
G01*
D13*
X155250000Y-103800000D02*
X155250000Y-106000000D01*
X155250000Y-106000000D02*
X157250000Y-106000000D01*
X157250000Y-103800000D02*
X155250000Y-103800000D01*
X157250000Y-106000000D02*
X157250000Y-103800000D01*
X157400000Y-103900000D02*
X157500000Y-103800000D01*
X157500000Y-103800000D02*
X157500000Y-104000000D01*
X157500000Y-104000000D02*
X157400000Y-103900000D01*
D14*
X156900000Y-104600000D02*
G75*
G02*
X156700000Y-104600000I-100000J0D01*
G01*
X156700000Y-104600000D02*
G75*
G02*
X156900000Y-104600000I100000J0D01*
G01*
D13*
X143901388Y-83328558D02*
X145001388Y-85233814D01*
X145001388Y-85233814D02*
X146733438Y-84233814D01*
X145633438Y-82328558D02*
X143901388Y-83328558D01*
X145813342Y-82340161D02*
X145849945Y-82203558D01*
X145849945Y-82203558D02*
X145949945Y-82376763D01*
X145949945Y-82376763D02*
X145813342Y-82340161D01*
X146733438Y-84233814D02*
X145633438Y-82328558D01*
D14*
X145743727Y-83246378D02*
G75*
G02*
X145543727Y-83246378I-100000J0D01*
G01*
X145543727Y-83246378D02*
G75*
G02*
X145743727Y-83246378I100000J0D01*
G01*
D13*
X136612373Y-88266025D02*
X138517629Y-89366025D01*
X137612371Y-86533975D02*
X136612373Y-88266025D01*
X137737372Y-86317468D02*
X137910579Y-86417468D01*
X137773975Y-86454071D02*
X137737372Y-86317468D01*
X137910579Y-86417468D02*
X137773975Y-86454071D01*
X138517629Y-89366025D02*
X139517627Y-87633975D01*
X139517627Y-87633975D02*
X137612371Y-86533975D01*
D14*
X138180192Y-87323686D02*
G75*
G02*
X137980192Y-87323686I-100000J0D01*
G01*
X137980192Y-87323686D02*
G75*
G02*
X138180192Y-87323686I100000J0D01*
G01*
D13*
X131966562Y-99371442D02*
X133698612Y-100371442D01*
X133066562Y-97466186D02*
X131966562Y-99371442D01*
X133698612Y-100371442D02*
X134798612Y-98466186D01*
X134798612Y-98466186D02*
X133066562Y-97466186D01*
X134878516Y-98627789D02*
X135015119Y-98591186D01*
X134915119Y-98764391D02*
X134878516Y-98627789D01*
X135015119Y-98591186D02*
X134915119Y-98764391D01*
D14*
X134108901Y-98934006D02*
G75*
G02*
X133908901Y-98934006I-100000J0D01*
G01*
X133908901Y-98934006D02*
G75*
G02*
X134108901Y-98934006I100000J0D01*
G01*
D13*
X137317167Y-104550497D02*
X138602741Y-106082586D01*
X138602741Y-106082586D02*
X140288039Y-104668453D01*
X139002465Y-103136364D02*
X137317167Y-104550497D01*
X140288039Y-104668453D02*
X139002465Y-103136364D01*
X140295528Y-104988522D02*
X140307853Y-104847638D01*
X140307853Y-104847638D02*
X140448737Y-104859964D01*
X140448737Y-104859964D02*
X140295528Y-104988522D01*
D14*
X139485951Y-104837963D02*
G75*
G02*
X139285949Y-104837963I-100001J0D01*
G01*
X139285949Y-104837963D02*
G75*
G02*
X139485951Y-104837963I100001J0D01*
G01*
D13*
X142865000Y-75200000D02*
X143065000Y-75200000D01*
X142865000Y-75450000D02*
X142865000Y-77450000D01*
X142865000Y-77450000D02*
X145065000Y-77450000D01*
X142965000Y-75300000D02*
X142865000Y-75200000D01*
X143065000Y-75200000D02*
X142965000Y-75300000D01*
X145065000Y-75450000D02*
X142865000Y-75450000D01*
X145065000Y-77450000D02*
X145065000Y-75450000D01*
D14*
X143765000Y-75900000D02*
G75*
G02*
X143565000Y-75900000I-100000J0D01*
G01*
X143565000Y-75900000D02*
G75*
G02*
X143765000Y-75900000I100000J0D01*
G01*
D13*
X138864564Y-97058978D02*
X140549862Y-98473111D01*
X140150138Y-95526889D02*
X138864564Y-97058978D01*
X140235955Y-98536065D02*
X140376839Y-98523738D01*
X140376839Y-98523738D02*
X140389164Y-98664622D01*
X140389164Y-98664622D02*
X140235955Y-98536065D01*
X140549862Y-98473111D02*
X141835436Y-96941022D01*
X141835436Y-96941022D02*
X140150138Y-95526889D01*
D14*
X140326280Y-97614161D02*
G75*
G02*
X140126280Y-97614161I-100000J0D01*
G01*
X140126280Y-97614161D02*
G75*
G02*
X140326280Y-97614161I100000J0D01*
G01*
D13*
X139552789Y-91320041D02*
X141284839Y-92320041D01*
X140652789Y-89414785D02*
X139552789Y-91320041D01*
X141284839Y-92320041D02*
X142384839Y-90414785D01*
X142384839Y-90414785D02*
X140652789Y-89414785D01*
X142464743Y-90576388D02*
X142601346Y-90539785D01*
X142501346Y-90712990D02*
X142464743Y-90576388D01*
X142601346Y-90539785D02*
X142501346Y-90712990D01*
D14*
X141695128Y-90882605D02*
G75*
G02*
X141495128Y-90882605I-100000J0D01*
G01*
X141495128Y-90882605D02*
G75*
G02*
X141695128Y-90882605I100000J0D01*
G01*
D13*
X127817468Y-107227628D02*
X127917468Y-107054423D01*
X127917468Y-107054423D02*
X127954071Y-107191025D01*
X127954071Y-107191025D02*
X127817468Y-107227628D01*
X128033975Y-107352628D02*
X129766025Y-108352628D01*
X129133975Y-105447372D02*
X128033975Y-107352628D01*
X129766025Y-108352628D02*
X130866025Y-106447372D01*
X130866025Y-106447372D02*
X129133975Y-105447372D01*
D14*
X128923686Y-106884808D02*
G75*
G02*
X128723686Y-106884808I-100000J0D01*
G01*
X128723686Y-106884808D02*
G75*
G02*
X128923686Y-106884808I100000J0D01*
G01*
D13*
X144950000Y-100150000D02*
X145150000Y-100150000D01*
X144950000Y-100400000D02*
X144950000Y-102400000D01*
X144950000Y-102400000D02*
X147150000Y-102400000D01*
X145050000Y-100250000D02*
X144950000Y-100150000D01*
X145150000Y-100150000D02*
X145050000Y-100250000D01*
X147150000Y-100400000D02*
X144950000Y-100400000D01*
X147150000Y-102400000D02*
X147150000Y-100400000D01*
D14*
X145850000Y-100850000D02*
G75*
G02*
X145650000Y-100850000I-100000J0D01*
G01*
X145650000Y-100850000D02*
G75*
G02*
X145850000Y-100850000I100000J0D01*
G01*
%LPC*%
D15*
X151453883Y-95952071D03*
X150420220Y-96328291D03*
X151046117Y-98047929D03*
X152079780Y-97671709D03*
D16*
X148302413Y-90068814D03*
X148302413Y-91168814D03*
X150132413Y-91168814D03*
X150132413Y-90068814D03*
X156800000Y-103985000D03*
X155700000Y-103985000D03*
X155700000Y-105815000D03*
X156800000Y-105815000D03*
D17*
X145336227Y-82713773D03*
X144383599Y-83263773D03*
X145298599Y-84848599D03*
X146251227Y-84298599D03*
D18*
X137547587Y-87016187D03*
X136997587Y-87968814D03*
X138582413Y-88883813D03*
X139132413Y-87931186D03*
D19*
X134316401Y-98401401D03*
X133363773Y-97851401D03*
X132448773Y-99436227D03*
X133401401Y-99986227D03*
D20*
X139857067Y-104442649D03*
X139150000Y-103600000D03*
X137748139Y-104776301D03*
X138455206Y-105618950D03*
D16*
X143050000Y-75900000D03*
X143050000Y-77000000D03*
X144880000Y-77000000D03*
X144880000Y-75900000D03*
D21*
X140697397Y-98009475D03*
X141404463Y-97166826D03*
X140002603Y-95990525D03*
X139295537Y-96833174D03*
D19*
X141902628Y-90350000D03*
X140950000Y-89800000D03*
X140035000Y-91384826D03*
X140987628Y-91934826D03*
D22*
X128516186Y-107417413D03*
X129468814Y-107967413D03*
X130383814Y-106382587D03*
X129431186Y-105832587D03*
D16*
X145135000Y-100850000D03*
X145135000Y-101950000D03*
X146965000Y-101950000D03*
X146965000Y-100850000D03*
D23*
X146740000Y-118960000D03*
X140960000Y-118960000D03*
D24*
X148175000Y-122660000D03*
D25*
X148175000Y-118480000D03*
D24*
X139525000Y-122660000D03*
D25*
X139525000Y-118480000D03*
%LPD*%
M02*
